<svg width="228" height="73" viewBox="0 0 228 73" fill="none" xmlns="http://www.w3.org/2000/svg">
<path d="M13.1922 66.1V9.3L16.8922 12.1L3.09219 19.4L0.192188 10L18.8922 -3.8147e-06H24.0922V66.1H13.1922ZM2.09219 71V60.6H35.4922V71H2.09219ZM71.7922 72C66.4589 72 61.8589 70.5333 57.9922 67.6C54.1922 64.6667 51.2589 60.5333 49.1922 55.2C47.1255 49.8 46.0922 43.4 46.0922 36C46.0922 28.6 47.1255 22.2333 49.1922 16.9C51.2589 11.5 54.1922 7.33333 57.9922 4.4C61.8589 1.46666 66.4589 -3.8147e-06 71.7922 -3.8147e-06C77.1255 -3.8147e-06 81.7255 1.46666 85.5922 4.4C89.4589 7.33333 92.4255 11.5 94.4922 16.9C96.5589 22.2333 97.5922 28.6 97.5922 36C97.5922 43.4 96.5589 49.8 94.4922 55.2C92.4255 60.5333 89.4589 64.6667 85.5922 67.6C81.7255 70.5333 77.1255 72 71.7922 72ZM71.7922 62.2C76.6589 62.2 80.4255 59.9333 83.0922 55.4C85.7589 50.8 87.0922 44.3333 87.0922 36C87.0922 27.6667 85.7589 21.2333 83.0922 16.7C80.4255 12.1 76.6589 9.8 71.7922 9.8C66.9255 9.8 63.1589 12.1 60.4922 16.7C57.8255 21.2333 56.4922 27.6667 56.4922 36C56.4922 44.3333 57.8255 50.8 60.4922 55.4C63.1589 59.9333 66.9255 62.2 71.7922 62.2ZM123.934 66.1V9.3L127.634 12.1L113.834 19.4L110.934 10L129.634 -3.8147e-06H134.834V66.1H123.934ZM112.834 71V60.6H146.234V71H112.834ZM157.234 37.9V28.9H203.834V37.9H157.234ZM157.234 56.8V47.9H203.834V56.8H157.234ZM217.575 46.9C217.108 42.7 216.675 38.3667 216.275 33.9C215.942 29.3667 215.675 24.9 215.475 20.5C215.275 16.1 215.175 11.9333 215.175 7.99999V0.999995H225.975V7.99999C225.975 12.1333 225.875 16.4667 225.675 21C225.475 25.5333 225.175 30.0333 224.775 34.5C224.442 38.9 224.042 43.0333 223.575 46.9H217.575ZM220.275 72.1C218.075 72.1 216.375 71.4667 215.175 70.2C213.975 68.8667 213.375 67 213.375 64.6C213.375 62.4 214.008 60.6 215.275 59.2C216.542 57.8 218.208 57.1 220.275 57.1C222.475 57.1 224.175 57.7667 225.375 59.1C226.575 60.3667 227.175 62.2 227.175 64.6C227.175 66.8 226.542 68.6 225.275 70C224.008 71.4 222.342 72.1 220.275 72.1Z" fill="#18353A"/>
</svg>
