<svg width="159" height="25" viewBox="0 0 159 25" fill="none" xmlns="http://www.w3.org/2000/svg">
<g clip-path="url(#clip0_5_7620)">
<path d="M28.4049 20.3221C30.2728 19.4045 31.3093 18.5034 31.3093 18.5034V17.3058H29.4697C28.9732 17.3058 28.7863 17.4855 28.4887 17.8837C27.8605 18.7294 26.3052 19.8476 24.8635 20.0931C23.8166 20.2712 22.508 20.0212 21.6824 19.4839C21.5583 19.403 21.4372 19.3147 21.3205 19.2219C20.8836 18.8673 20.5099 18.4411 20.2153 17.9615C19.6451 17.0153 19.3355 15.9348 19.318 14.8299C19.3055 14.3285 19.3426 13.8271 19.4286 13.333L19.4406 13.2627L19.0248 12.3481L16.4824 14.9452V15.0395C16.4824 16.9122 17.6145 19.1141 19.1116 20.1605C20.2662 20.9445 21.6302 21.3618 23.0254 21.358H23.5369C23.7926 21.358 24.0469 21.3655 24.3026 21.367C24.7695 21.3593 25.2362 21.3848 25.6995 21.4433C26.1132 21.503 26.4999 21.6843 26.8107 21.9642C27.0376 22.1927 27.2411 22.4435 27.4178 22.7127L28.04 23.545L29.0869 24.9476L29.1258 24.9985H32.0047L28.4049 20.3221Z" fill="#00A1AD"/>
<path d="M30.6498 6.10294C29.0645 5.80356 27.4403 5.63441 25.8296 5.76464C22.7952 6.01163 19.6979 7.15378 17.5323 9.38119L8.28239 18.9615C8.18734 19.0564 8.05852 19.1098 7.92421 19.1098C7.7899 19.1098 7.66108 19.0564 7.56603 18.9615L4.64972 16.0829C4.60652 16.041 4.57218 15.9909 4.54873 15.9355C4.52527 15.88 4.51319 15.8205 4.51319 15.7603C4.51319 15.7001 4.52527 15.6405 4.54873 15.5851C4.57218 15.5297 4.60652 15.4796 4.64972 15.4377L11.9405 7.9696C12.2635 7.63429 12.2635 7.45615 11.8971 7.08941C11.7195 6.91516 11.529 6.75453 11.3273 6.6089C10.476 5.98199 9.49586 5.55289 8.45807 5.3528C7.42028 5.1527 6.35098 5.18666 5.32794 5.45218C4.30491 5.71771 3.35387 6.20814 2.544 6.88779C1.73413 7.56744 1.08579 8.41922 0.646142 9.38119C-0.38728 11.5966 -0.171922 13.9782 1.22641 15.9886C1.46426 16.2953 1.71942 16.5882 1.99064 16.8658C2.82964 17.713 4.63775 19.5228 6.04057 20.9269C6.28855 21.1747 6.58325 21.3707 6.90757 21.5035C7.23188 21.6363 7.57933 21.7032 7.92972 21.7004C8.28011 21.6977 8.62645 21.6252 8.94862 21.4873C9.27078 21.3493 9.56234 21.1487 9.80635 20.897C13.2641 17.3298 19.6994 10.6371 19.7757 10.5578C20.8048 9.47926 22.0321 8.60963 23.3904 7.99654C24.7649 7.36608 26.2654 7.05886 27.7768 7.09839C28.9035 7.15347 30.0125 7.39999 31.0566 7.82739V6.18078L30.6498 6.10294ZM3.0435 13.9962C2.42917 13.2025 2.0886 12.2308 2.07289 11.2269C2.02354 9.10725 4.08889 7.21665 6.18265 7.21665C7.13232 7.21665 7.86215 7.4322 8.75798 8.20611C8.80299 8.24637 8.83942 8.2953 8.86509 8.34998C8.89076 8.40466 8.90515 8.46397 8.90738 8.52435C8.90961 8.58472 8.89965 8.64493 8.87809 8.70136C8.85653 8.7578 8.82382 8.8093 8.78191 8.85278L3.69705 14.0246C3.65319 14.0675 3.60102 14.1009 3.54376 14.1228C3.4865 14.1447 3.42537 14.1546 3.36413 14.152C3.30289 14.1493 3.24284 14.1341 3.1877 14.1073C3.13255 14.0805 3.08348 14.0427 3.0435 13.9962Z" fill="#00A1AD"/>
<path d="M53.248 21.0227H56.1659V6.35291H54.9694C54.5121 6.35449 54.074 6.53755 53.7513 6.86194C53.4286 7.18633 53.2476 7.62557 53.248 8.08334V21.0227Z" fill="#19353A"/>
<path d="M70.1523 21.0227H73.0716V6.35291H71.8752C71.4176 6.35409 70.9792 6.53698 70.6562 6.86141C70.3331 7.18585 70.1519 7.62532 70.1523 8.08334V21.0227Z" fill="#19353A"/>
<path d="M109.186 21.0227H112.103V6.35291H110.907C110.45 6.35449 110.012 6.53755 109.689 6.86194C109.366 7.18633 109.185 7.62557 109.186 8.08334V21.0227Z" fill="#19353A"/>
<path d="M104.974 6.69272C104.44 6.48348 103.876 6.36118 103.303 6.33047C103.107 6.3155 102.911 6.30652 102.717 6.30652H102.671C101.411 6.30652 100.306 6.62686 99.3804 7.26155C98.4954 7.86956 97.8088 8.72494 97.4063 9.72099C97.1527 10.3622 97.0188 11.0447 97.0115 11.7343C97.0115 11.7673 97.0115 21.0227 97.0115 21.0227H99.9293C99.9293 20.9658 99.9293 20.9104 99.9293 20.855V20.388C99.9293 20.1485 99.9293 19.909 99.9218 19.6695C99.9218 19.3701 99.9218 19.0573 99.9218 18.7504L99.9128 17.6771V16.5005L99.9039 15.2686C99.9039 14.8569 99.9039 14.4453 99.9039 14.0321V12.8346C99.9039 12.4673 99.9039 12.1006 99.9039 11.7343V10.7778C99.9039 10.5218 99.9039 10.2674 99.9039 10.0114C99.903 9.68229 99.9406 9.35422 100.016 9.0339C100.048 8.88203 100.105 8.73641 100.184 8.60279C100.259 8.48212 100.346 8.36973 100.445 8.26748C100.591 8.11871 100.758 7.99257 100.94 7.89325C101.661 7.50106 102.461 7.73458 102.876 7.90972C103.19 8.05484 103.49 8.22873 103.773 8.42915C103.882 8.501 103.991 8.57884 104.103 8.64321L104.253 8.73901C104.253 8.73901 105.449 6.93073 105.461 6.91277L104.974 6.69272Z" fill="#19353A"/>
<path d="M44.8145 16.3163C44.8145 16.3538 44.8145 16.3912 44.8145 16.4271V21.0242H47.7323V6.35437H46.5358C46.0787 6.35595 45.6409 6.53881 45.3183 6.86288C44.9956 7.18694 44.8145 7.6258 44.8145 8.08331V16.3163Z" fill="#19353A"/>
<path d="M127.363 16.3163C127.363 16.4541 127.355 16.5963 127.342 16.7834V18.9719L127.351 19.6635L127.363 19.65V21.0242H130.281V6.35437H129.084C128.627 6.35595 128.189 6.53881 127.867 6.86288C127.544 7.18694 127.363 7.6258 127.363 8.08331V16.3163Z" fill="#19353A"/>
<path d="M138.654 7.65975V6.35144H137.458C137 6.35303 136.562 6.53629 136.239 6.86101C135.916 7.18572 135.736 7.62535 135.736 8.08337V21.0242H138.654V11.0263C138.654 10.8631 138.663 10.6955 138.681 10.4934V8.39772V7.6328L138.654 7.65975Z" fill="#19353A"/>
<path d="M43.8808 18.9539C43.6331 19.2426 43.3395 19.4884 43.0119 19.6814C42.5038 19.9756 41.9283 20.1329 41.3414 20.138C40.7595 20.1552 40.1838 20.0145 39.6753 19.7308C39.1463 19.4199 38.706 18.9782 38.3966 18.448C38.0512 17.8822 37.8762 17.1412 37.8762 16.246V6.35141H36.6798C36.2222 6.353 35.7839 6.53626 35.4611 6.86098C35.1384 7.18569 34.9576 7.62532 34.9584 8.08334V16.2116C34.9415 17.0022 35.1181 17.7849 35.4729 18.4914C35.8035 19.1243 36.2667 19.6783 36.8308 20.1156C37.3922 20.5475 38.0271 20.8741 38.7047 21.0796C39.3768 21.2864 40.0759 21.3919 40.779 21.3924C41.6513 21.3766 42.5099 21.1723 43.2961 20.7937C43.4994 20.695 43.6949 20.5809 43.8808 20.4524V18.9554" fill="#19353A"/>
<path d="M91.5363 9.76288C90.8703 8.62813 89.9256 7.68259 88.7919 7.01603C87.588 6.28105 86.073 5.90981 84.2888 5.90981C83.6482 5.90774 83.0088 5.96587 82.379 6.08346V7.48457C82.9956 7.23144 83.6569 7.10567 84.3232 7.11483C85.4599 7.11483 86.4245 7.41421 87.1917 8.02346C87.9623 8.63196 88.5676 9.4247 88.952 10.3287C89.3568 11.2869 89.5605 12.3182 89.5502 13.3585C89.5599 14.397 89.3626 15.427 88.9699 16.3882C88.5957 17.2911 87.9951 18.082 87.2261 18.6845C86.4604 19.2833 85.4808 19.5946 84.3173 19.5946C83.6518 19.6053 82.9908 19.4832 82.373 19.2354V20.6305C83.0047 20.7495 83.6461 20.8086 84.2888 20.8071C86.1239 20.8071 87.6718 20.4359 88.8876 19.7024C90.1035 18.9689 91.0188 18.0423 91.6155 16.9496C92.2138 15.8483 92.5163 14.6104 92.4934 13.357C92.4884 12.097 92.1587 10.8596 91.5363 9.76437" fill="#19353A"/>
<path d="M126.434 18.9465C126.185 19.2383 125.889 19.4867 125.559 19.6815C125.051 19.9758 124.475 20.1331 123.889 20.138C123.307 20.1548 122.732 20.0142 122.224 19.7309C121.695 19.4204 121.254 18.9786 120.945 18.448C120.6 17.8807 120.425 17.1397 120.425 16.2461V6.35144H119.228C118.771 6.35303 118.333 6.53629 118.01 6.86101C117.687 7.18572 117.506 7.62535 117.507 8.08337V16.2116C117.49 17.0021 117.666 17.7848 118.02 18.4914C118.35 19.1249 118.814 19.679 119.379 20.1156C119.94 20.5475 120.575 20.8741 121.252 21.0796C121.924 21.2856 122.623 21.3911 123.326 21.3925C124.198 21.3757 125.057 21.1715 125.843 20.7937C126.048 20.6937 126.245 20.5787 126.432 20.4494L126.434 18.9465Z" fill="#19353A"/>
<path d="M157.818 8.88122C157.487 8.24916 157.024 7.69577 156.46 7.25856C155.899 6.82637 155.264 6.49973 154.586 6.29455C153.916 6.08776 153.219 5.98182 152.518 5.98019C151.759 5.97594 151.006 6.11931 150.302 6.40232C149.601 6.69163 148.987 7.1554 148.516 7.74955C148.347 7.94348 148.19 8.14743 148.046 8.36029C147.981 8.45609 147.918 8.55339 147.858 8.65967C147.39 7.82427 146.677 7.15285 145.815 6.73614C144.849 6.24844 143.783 5.99221 142.701 5.98768C141.828 5.98079 140.966 6.17329 140.178 6.55052C139.97 6.65088 139.77 6.7675 139.58 6.8993V8.39921C139.829 8.10241 140.127 7.84943 140.459 7.65075C140.968 7.35856 141.544 7.20381 142.13 7.20168C142.711 7.18397 143.287 7.32471 143.795 7.60884C144.321 7.92056 144.76 8.36224 145.067 8.8917C145.413 9.45753 145.588 10.1985 145.588 11.0937V21.0212H148.507V11.0263C148.507 10.1985 148.677 9.49645 149.012 8.94109C149.322 8.41114 149.762 7.96947 150.291 7.65824C150.802 7.36949 151.377 7.21498 151.963 7.20916C152.545 7.19527 153.121 7.33629 153.631 7.61782C154.163 7.92126 154.604 8.36291 154.906 8.89619C155.241 9.46502 155.412 10.206 155.412 11.1011V21.0287H158.33V11.1281C158.344 10.3488 158.167 9.57802 157.815 8.88271" fill="#19353A"/>
<path d="M61.6838 21.0227H64.6345V0H63.4112C62.9531 0 62.5137 0.182155 62.1898 0.506394C61.8658 0.830633 61.6838 1.2704 61.6838 1.72894V21.0227Z" fill="#19353A"/>
<path d="M78.5664 21.0227H81.4498V0H80.2923C79.8344 0.000396782 79.3954 0.182727 79.0718 0.506923C78.7482 0.831119 78.5664 1.27065 78.5664 1.72894V21.0227Z" fill="#19353A"/>
</g>
<defs>
<clipPath id="clip0_5_7620">
<rect width="158.333" height="25" fill="white"/>
</clipPath>
</defs>
</svg>
