<svg width="307" height="312" viewBox="0 0 307 312" fill="none" xmlns="http://www.w3.org/2000/svg">
<circle cx="102.633" cy="102.633" r="102.633" transform="matrix(-1 0 0 1 304.336 3)" fill="#FFFDF1"/>
<mask id="mask0_344_2101" style="mask-type:alpha" maskUnits="userSpaceOnUse" x="99" y="3" width="206" height="206">
<circle cx="102.633" cy="102.633" r="102.633" transform="matrix(-1 0 0 1 304.336 3)" fill="#D9D9D9"/>
</mask>
<g mask="url(#mask0_344_2101)">
<ellipse cx="120.51" cy="11.0804" rx="7.16875" ry="6.84306" fill="#C6E5DF"/>
<ellipse cx="155.411" cy="11.0804" rx="7.16875" ry="6.84306" fill="#C6E5DF"/>
<ellipse cx="120.51" cy="44.4051" rx="7.16875" ry="6.84306" fill="#C6E5DF"/>
<ellipse cx="155.411" cy="44.4051" rx="7.16875" ry="6.84306" fill="#96D8D6"/>
<ellipse cx="190.435" cy="11.0804" rx="7.16875" ry="6.84306" fill="#C6E5DF"/>
<ellipse cx="260.258" cy="11.0804" rx="7.16875" ry="6.84306" fill="#C6E5DF"/>
<ellipse cx="225.347" cy="11.0804" rx="7.16875" ry="6.84306" fill="#C6E5DF"/>
<ellipse cx="295.169" cy="11.0804" rx="7.16875" ry="6.84306" fill="#C6E5DF"/>
<ellipse cx="120.51" cy="77.3926" rx="7.16875" ry="6.84306" fill="#18353A" fill-opacity="0.5"/>
<ellipse cx="190.435" cy="44.4051" rx="7.16875" ry="6.84306" fill="#C6E5DF"/>
<ellipse cx="260.258" cy="44.4051" rx="7.16875" ry="6.84306" fill="#C6E5DF"/>
<ellipse cx="225.347" cy="44.4051" rx="7.16875" ry="6.84306" fill="#00525B" fill-opacity="0.33"/>
<ellipse cx="295.169" cy="44.4051" rx="7.16875" ry="6.84306" fill="#C6E5DF"/>
<ellipse cx="120.51" cy="178.053" rx="7.16875" ry="6.84306" fill="#C6E5DF"/>
<ellipse cx="155.411" cy="178.053" rx="7.16875" ry="6.84306" fill="#C6E5DF"/>
<ellipse cx="120.51" cy="211.378" rx="7.16875" ry="6.84306" fill="#C6E5DF"/>
<ellipse cx="155.411" cy="211.378" rx="7.16875" ry="6.84306" fill="#C6E5DF"/>
<ellipse cx="260.258" cy="178.053" rx="7.16875" ry="6.84306" fill="#C6E5DF"/>
<ellipse cx="295.169" cy="178.053" rx="7.16875" ry="6.84306" fill="#C6E5DF"/>
<ellipse cx="260.258" cy="211.378" rx="7.16875" ry="6.84306" fill="#C6E5DF"/>
<ellipse cx="190.435" cy="178.081" rx="7.16875" ry="6.84306" fill="#C6E5DF"/>
<ellipse cx="225.347" cy="178.081" rx="7.16875" ry="6.84306" fill="#00A3AF" fill-opacity="0.4"/>
<ellipse cx="190.435" cy="211.404" rx="7.16875" ry="6.84306" fill="#C6E5DF"/>
<ellipse cx="225.347" cy="211.404" rx="7.16875" ry="6.84306" fill="#C6E5DF"/>
<ellipse cx="295.169" cy="211.378" rx="7.16875" ry="6.84306" fill="#C6E5DF"/>
<ellipse cx="120.51" cy="111.741" rx="7.16875" ry="6.84306" fill="#C6E5DF"/>
<ellipse cx="120.51" cy="145.064" rx="7.16875" ry="6.84306" fill="#C6E5DF"/>
<ellipse cx="295.169" cy="145.064" rx="7.16875" ry="6.84306" fill="#C6E5DF"/>
<path d="M301.626 149.212C311.985 144.086 317.732 139.052 317.732 139.052V132.363H307.531C304.778 132.363 303.741 133.366 302.091 135.591C298.608 140.315 289.982 146.561 281.987 147.932C276.182 148.927 268.925 147.531 264.347 144.529C263.659 144.078 262.987 143.584 262.34 143.066C259.917 141.085 257.845 138.705 256.211 136.025C253.049 130.74 251.332 124.705 251.235 118.533C251.166 115.732 251.372 112.931 251.849 110.171L251.915 109.778L249.61 104.669L235.511 119.177V119.704C235.511 130.164 241.789 142.464 250.091 148.309C256.494 152.688 264.057 155.019 271.795 154.998H274.631C276.049 154.998 277.459 155.04 278.877 155.048C281.466 155.005 284.055 155.148 286.623 155.475C288.918 155.808 291.062 156.821 292.786 158.384C294.044 159.66 295.172 161.061 296.153 162.565L299.603 167.214L305.408 175.049L305.624 175.333H321.589L301.626 149.212Z" fill="#00A1AD"/>
<path d="M314.075 69.7849C305.284 68.1126 296.278 67.1677 287.345 67.8952C270.518 69.2749 253.342 75.6547 241.333 88.0968L190.038 141.611C189.511 142.142 188.797 142.44 188.052 142.44C187.307 142.44 186.593 142.142 186.065 141.611L169.893 125.532C169.654 125.298 169.463 125.018 169.333 124.708C169.203 124.399 169.136 124.066 169.136 123.73C169.136 123.394 169.203 123.061 169.333 122.751C169.463 122.442 169.654 122.162 169.893 121.928L210.324 80.2118C212.115 78.3388 212.115 77.3438 210.083 75.2952C209.098 74.3218 208.042 73.4246 206.924 72.6111C202.203 69.1093 196.767 66.7124 191.012 65.5947C185.257 64.477 179.327 64.6667 173.654 66.1499C167.981 67.6331 162.707 70.3725 158.216 74.169C153.725 77.9654 150.13 82.7234 147.692 88.0968C141.961 100.472 143.155 113.775 150.909 125.005C152.228 126.718 153.643 128.354 155.147 129.905C159.8 134.637 169.827 144.747 177.606 152.59C178.981 153.974 180.616 155.069 182.414 155.811C184.212 156.552 186.139 156.926 188.082 156.911C190.025 156.895 191.946 156.49 193.733 155.72C195.519 154.949 197.136 153.829 198.489 152.423C217.664 132.497 253.35 95.1122 253.773 94.669C259.48 88.6446 266.287 83.787 273.819 80.3623C281.441 76.8407 289.762 75.1245 298.144 75.3454C304.391 75.653 310.542 77.0301 316.331 79.4175V70.2197L314.075 69.7849ZM160.986 113.876C157.579 109.442 155.691 104.014 155.604 98.4067C155.33 86.5666 166.783 76.0059 178.394 76.0059C183.66 76.0059 187.708 77.21 192.675 81.533C192.925 81.7578 193.127 82.0312 193.269 82.3366C193.412 82.6421 193.492 82.9733 193.504 83.3106C193.516 83.6479 193.461 83.9842 193.341 84.2994C193.222 84.6146 193.041 84.9023 192.808 85.1452L164.61 114.034C164.367 114.274 164.078 114.461 163.76 114.583C163.443 114.705 163.104 114.761 162.764 114.746C162.424 114.731 162.091 114.646 161.786 114.496C161.48 114.347 161.208 114.135 160.986 113.876Z" fill="#00A1AD"/>
</g>
<circle cx="102.633" cy="102.633" r="102.633" transform="matrix(-1 0 0 1 304.336 3)" stroke="#4A4A4A" stroke-width="5"/>
<line y1="-2.5" x2="183.341" y2="-2.5" transform="matrix(-0.707107 0.707107 0.707107 0.707107 133.642 182.337)" stroke="#4A4A4A" stroke-width="5"/>
</svg>
