<svg width="157" height="156" viewBox="0 0 157 156" fill="none" xmlns="http://www.w3.org/2000/svg">
<path d="M122.31 0H34.0997C15.3802 0 0.205078 15.1751 0.205078 33.8946V122.105C0.205078 140.825 15.3802 156 34.0997 156H122.31C141.03 156 156.205 140.825 156.205 122.105V33.8946C156.205 15.1751 141.03 0 122.31 0Z" fill="#02A3AE"/>
<path d="M112.906 97.0224C115.768 95.6622 118.468 93.9852 120.956 92.0229V88.7182H115.872C114.516 88.7182 114.008 89.2266 113.16 90.3282C110.59 93.4071 107.075 95.5517 103.161 96.4292C100.228 96.7792 97.2603 96.1856 94.6876 94.7345L93.4166 93.9719C92.2108 93.0184 91.2032 91.8382 90.4508 90.4977C88.8979 87.9396 88.0501 85.016 87.9935 82.024C87.8233 80.6452 87.8233 79.2507 87.9935 77.8719L86.8919 75.3298L79.9435 82.4477C80.0347 85.1779 80.7276 87.8543 81.9726 90.2858C83.2177 92.7174 84.9842 94.844 87.1461 96.514C90.3301 98.6501 94.0735 99.7997 97.9076 99.8187H101.89C103.158 99.6895 104.436 99.6895 105.703 99.8187C106.858 99.9239 107.939 100.434 108.754 101.259C109.422 101.844 109.994 102.53 110.449 103.293L112.143 105.581L115.024 109.394H122.905L112.906 97.0224Z" fill="#FFFDF1"/>
<path d="M118.838 57.9607C114.494 57.0577 110.048 56.7442 105.62 57.0286C97.1468 57.5698 89.1359 61.0802 82.9949 66.9427L57.5739 93.2111C57.3081 93.4552 56.9603 93.5907 56.5994 93.5907C56.2385 93.5907 55.8908 93.4552 55.625 93.2111L47.1513 85.3306C47.0251 85.2192 46.924 85.0823 46.8547 84.9289C46.7855 84.7755 46.7497 84.6091 46.7497 84.4408C46.7497 84.2725 46.7855 84.1061 46.8547 83.9527C46.924 83.7993 47.0251 83.6624 47.1513 83.5511L67.9965 63.0449C68.8439 62.1975 68.8439 61.6891 67.9965 60.6722C67.3654 60.1538 66.6841 59.6997 65.9628 59.3164C63.6143 57.6072 60.9162 56.4397 58.0626 55.8977C55.209 55.3558 52.2707 55.4529 49.4591 56.1821C46.6475 56.9114 44.0324 58.2546 41.8019 60.1152C39.5714 61.9758 37.7809 64.3075 36.5592 66.9427C35.1445 69.8385 34.5468 73.0655 34.8305 76.2758C35.1142 79.4862 36.2686 82.5583 38.1692 85.1611C38.1692 85.1611 39.525 86.7711 40.2877 87.5337L51.0492 98.7189C51.7265 99.4004 52.5318 99.9413 53.4189 100.31C54.306 100.679 55.2573 100.869 56.2181 100.869C57.1789 100.869 58.1302 100.679 59.0173 100.31C59.9044 99.9413 60.7098 99.4004 61.3871 98.7189C70.9623 88.8895 88.6722 70.5017 88.8417 70.2475C91.6908 67.2813 95.086 64.8932 98.8406 63.2143C102.606 61.4711 106.726 60.6297 110.873 60.757C112.356 60.8294 113.83 61.0278 115.28 61.3501C116.881 61.6577 118.444 62.1407 119.94 62.7906V58.1301L118.838 57.9607ZM42.5755 79.6532C40.8757 77.4685 39.9248 74.7944 39.864 72.0269C40.0178 68.9925 41.3551 66.1393 43.5889 64.0798C45.8227 62.0203 48.7749 60.9186 51.8118 61.0112C53.106 60.9687 54.3956 61.1868 55.6038 61.6527C56.812 62.1185 57.9142 62.8225 58.845 63.7227C58.9712 63.8341 59.0723 63.971 59.1415 64.1244C59.2108 64.2778 59.2466 64.4442 59.2466 64.6125C59.2466 64.7808 59.2108 64.9472 59.1415 65.1006C59.0723 65.254 58.9712 65.3909 58.845 65.5022L44.9482 79.738C44.8309 79.8591 44.6892 79.9538 44.5325 80.0159C44.3758 80.078 44.2076 80.1059 44.0393 80.0979C43.8709 80.0899 43.7062 80.0461 43.556 79.9694C43.4059 79.8927 43.2739 79.7849 43.1687 79.6532H42.5755Z" fill="#FFFDF1"/>
</svg>
