<svg width="298" height="71" viewBox="0 0 298 71" fill="none" xmlns="http://www.w3.org/2000/svg">
<g clip-path="url(#clip0_66_7389)">
<path d="M53.3316 38.5511C56.8376 36.8119 58.7845 35.1035 58.7845 35.1035V32.8265H55.3283C54.3978 32.8265 54.0461 33.1654 53.4895 33.9216C52.307 35.5236 49.3881 37.6465 46.6825 38.1226C44.7162 38.4615 42.2515 37.9854 40.709 36.9687C40.4764 36.8147 40.2493 36.6467 40.0305 36.4702C39.2107 35.7969 38.5095 34.9882 37.9563 34.0784C36.8871 32.2793 36.308 30.2259 36.2781 28.127C36.254 27.1729 36.3236 26.2188 36.4858 25.2787L36.5079 25.1443L35.7242 23.4106L30.9609 28.337V28.5163C30.9609 32.0703 33.085 36.2462 35.8987 38.2318C38.0645 39.7207 40.6241 40.5143 43.2429 40.5088L44.2067 40.5228C44.6848 40.5228 45.1639 40.5284 45.644 40.5396C46.5205 40.5247 47.3969 40.5734 48.2665 40.6852C49.0429 40.7976 49.7687 41.1407 50.3518 41.6711C50.7769 42.1047 51.159 42.5794 51.4928 43.0882L52.6615 44.6678L54.6277 47.3312L54.6997 47.4265H60.0944L53.3316 38.5511Z" fill="#00A1AD"/>
<path d="M57.5476 11.5778C54.5705 11.0176 51.5215 10.6872 48.4974 10.9364C42.8008 11.4041 36.9742 13.5719 32.9171 17.7981L15.5506 35.9633C15.3716 36.1429 15.1297 36.2436 14.8776 36.2436C14.6255 36.2436 14.3836 36.1429 14.2047 35.9633L8.7297 30.502C8.56988 30.3393 8.48019 30.1193 8.48019 29.89C8.48019 29.6607 8.56988 29.4407 8.7297 29.2781L22.4324 15.1234C23.0444 14.4961 23.0278 14.1516 22.3493 13.443C22.0163 13.1126 21.659 12.8083 21.2803 12.5328C19.6816 11.3407 17.8399 10.5245 15.8896 10.1437C13.9393 9.7629 11.9295 9.82708 10.0069 10.3316C8.08423 10.836 6.29714 11.7681 4.77593 13.0598C3.25471 14.3515 2.03773 15.9703 1.21372 17.7981C-0.72482 21.9991 -0.320497 26.5194 2.30483 30.3311C2.75152 30.9126 3.23046 31.4681 3.73935 31.9947C5.3151 33.6023 8.72416 37.0359 11.3439 39.6994C11.8093 40.1694 12.3624 40.5412 12.9712 40.793C13.5799 41.0448 14.2321 41.1717 14.8898 41.1662C15.5475 41.1607 16.1975 41.023 16.8021 40.7611C17.4066 40.4992 17.9537 40.1183 18.4113 39.6406C24.9054 32.8741 36.988 20.1815 37.1292 20.0358C39.0614 17.99 41.3661 16.341 43.9169 15.1794C46.4969 13.9801 49.3143 13.3947 52.1529 13.4682C53.1552 13.5048 54.1518 13.6361 55.1299 13.8603C56.2199 14.0782 57.2851 14.4076 58.3091 14.8434V11.7206L57.5476 11.5778ZM5.71389 26.553C4.56028 25.0474 3.92173 23.2034 3.89443 21.2989C3.80028 17.2772 7.68012 13.6895 11.6098 13.6895C13.3933 13.6895 14.7613 14.0984 16.4423 15.5659C16.5301 15.6413 16.6015 15.7343 16.6519 15.839C16.7024 15.9438 16.7307 16.058 16.7351 16.1744C16.7395 16.2908 16.72 16.4069 16.6777 16.5153C16.6354 16.6236 16.5712 16.7219 16.4894 16.8038L6.95455 26.6062C6.87296 26.6915 6.77445 26.7583 6.66549 26.8022C6.55654 26.8462 6.43961 26.8663 6.32241 26.8613C6.2052 26.8563 6.09038 26.8262 5.9855 26.7731C5.88062 26.7199 5.78805 26.6449 5.71389 26.553Z" fill="#00A1AD"/>
<path d="M99.9727 39.8789H105.456V12.043H103.221C102.794 12.0422 102.372 12.1267 101.977 12.2915C101.583 12.4564 101.224 12.6983 100.922 13.0035C100.621 13.3087 100.381 13.6712 100.218 14.0701C100.055 14.469 99.9719 14.8965 99.9727 15.3282V39.8789Z" fill="#FFFDF0"/>
<path d="M131.715 39.8789H137.193V12.043H134.958C134.098 12.043 133.273 12.3885 132.665 13.0035C132.057 13.6186 131.715 14.4528 131.715 15.3226V39.8789Z" fill="#FFFDF0"/>
<path d="M205 39.8789H210.47V12.043H208.254C207.394 12.043 206.569 12.3885 205.961 13.0035C205.353 13.6186 205.011 14.4528 205.011 15.3226L205 39.8789Z" fill="#FFFDF0"/>
<path d="M197.095 12.6957C196.091 12.2998 195.032 12.0681 193.957 12.0095C193.591 11.9787 193.223 11.9619 192.849 11.9619H192.763C190.398 11.9619 188.332 12.5725 186.596 13.7768C184.934 14.9297 183.645 16.5527 182.891 18.4427C182.413 19.6581 182.161 20.9522 182.148 22.26C182.148 22.3244 182.148 39.8791 182.148 39.8791H187.626C187.626 39.7755 187.626 39.669 187.626 39.5654V38.6776C187.626 38.2239 187.626 37.7702 187.626 37.3165C187.626 36.7339 187.626 36.1514 187.626 35.5716L187.61 33.5355L187.593 31.295C187.593 30.5164 187.593 29.7378 187.593 28.9592C187.593 28.1778 187.593 27.3937 187.593 26.6123C187.593 25.8309 187.593 25.1055 187.593 24.3493C187.593 23.6547 187.593 22.949 187.593 22.2628V20.4452C187.593 19.9616 187.593 19.4771 187.593 18.9916C187.591 18.3683 187.662 17.7469 187.803 17.1404C187.864 16.8517 187.969 16.5746 188.116 16.3198C188.241 16.0936 188.387 15.8806 188.554 15.684C188.825 15.3988 189.138 15.1579 189.482 14.9698C190.836 14.2277 192.34 14.673 193.115 15.0035C193.708 15.2773 194.274 15.6064 194.807 15.9865C195.012 16.1237 195.217 16.2666 195.427 16.3926L195.704 16.5746C195.704 16.5746 197.953 13.1438 197.975 13.113L197.095 12.6957Z" fill="#FFFDF0"/>
<path d="M84.1407 30.9475C84.1407 31.0176 84.1407 31.0876 84.1407 31.1576V39.8789H89.6185V12.043H87.3836C86.5236 12.043 85.6987 12.3885 85.0906 13.0035C84.4824 13.6186 84.1407 14.4528 84.1407 15.3226V30.9475Z" fill="#FFFDF0"/>
<path d="M239.129 30.9475C239.129 31.208 239.129 31.4797 239.088 31.8354V35.9832L239.107 37.2995L239.129 37.2715V39.8789H244.607V12.043H242.37C241.944 12.043 241.522 12.1278 241.129 12.2927C240.736 12.4575 240.378 12.6991 240.077 13.0037C239.777 13.3083 239.538 13.6698 239.375 14.0677C239.213 14.4656 239.129 14.892 239.129 15.3226V30.9475Z" fill="#FFFDF0"/>
<path d="M260.334 14.5328V12.043H258.102C257.676 12.043 257.255 12.1278 256.861 12.2926C256.468 12.4574 256.11 12.699 255.809 13.0035C255.508 13.3081 255.269 13.6696 255.106 14.0675C254.943 14.4654 254.859 14.8919 254.859 15.3226V39.8733H260.34V20.9183C260.34 20.6074 260.354 20.291 260.39 19.9073V15.9275L260.373 14.4796L260.334 14.5328Z" fill="#FFFDF0"/>
<path d="M82.3905 35.958C81.9233 36.5038 81.3714 36.9691 80.7566 37.3359C79.8033 37.8966 78.7217 38.1959 77.6189 38.2041C76.528 38.234 75.4491 37.9671 74.4951 37.4311C73.5021 36.8419 72.6761 36.0036 72.0969 34.9973C71.4461 33.9219 71.1165 32.5159 71.1165 30.8187V12.043H68.8817C68.4549 12.0422 68.0321 12.1267 67.6377 12.2915C67.2432 12.4564 66.8848 12.6983 66.5831 13.0035C66.2813 13.3087 66.042 13.6712 65.879 14.0701C65.716 14.469 65.6325 14.8965 65.6332 15.3282V30.7543C65.6001 32.254 65.932 33.739 66.5997 35.0786C67.2185 36.2807 68.0889 37.332 69.1503 38.1593C70.2029 38.9801 71.3948 39.5999 72.6673 39.9881C73.9288 40.3807 75.2412 40.5808 76.561 40.5819C78.1971 40.5559 79.8085 40.1738 81.2855 39.4616C81.6702 39.2731 82.0405 39.0559 82.3933 38.8119V35.958" fill="#FFFDF0"/>
<path d="M171.864 18.5207C170.615 16.3668 168.842 14.5716 166.713 13.3058C164.453 11.9055 161.609 11.2081 158.258 11.2081C157.051 11.2043 155.846 11.314 154.658 11.5358V14.2048C155.813 13.7244 157.052 13.4852 158.3 13.5019C160.435 13.5019 162.246 14.0844 163.686 15.2271C165.138 16.377 166.281 17.8775 167.009 19.5905C167.771 21.4068 168.153 23.3622 168.134 25.3347C168.154 27.3062 167.785 29.262 167.048 31.0873C166.345 32.7998 165.216 34.2997 163.772 35.4424C162.335 36.5879 160.499 37.1676 158.311 37.1676C157.065 37.1863 155.827 36.955 154.669 36.487V39.1365C155.857 39.3582 157.062 39.4679 158.269 39.4641C161.717 39.4641 164.622 38.7584 166.904 37.3664C169.186 35.9745 170.906 34.2185 172.025 32.146C173.153 30.0587 173.726 27.7105 173.686 25.3319C173.677 22.9441 173.059 20.599 171.892 18.5235" fill="#FFFDF0"/>
<path d="M237.386 35.944C236.918 36.4991 236.363 36.9723 235.743 37.3443C234.79 37.9029 233.71 38.2011 232.608 38.2097C231.517 38.239 230.437 37.9721 229.482 37.4367C228.491 36.8476 227.667 36.0116 227.086 35.0085C226.438 33.9331 226.109 32.5271 226.109 30.8299V12.043H223.874C223.014 12.043 222.189 12.3885 221.581 13.0035C220.973 13.6186 220.631 14.4528 220.631 15.3226V30.7487C220.598 32.2481 220.929 33.7327 221.595 35.073C222.215 36.2739 223.085 37.3248 224.145 38.1537C225.199 38.9734 226.39 39.593 227.662 39.9825C228.925 40.3751 230.238 40.5752 231.559 40.5763C233.195 40.5509 234.807 40.1688 236.283 39.456C236.669 39.2675 237.039 39.0493 237.391 38.8035L237.386 35.944Z" fill="#FFFDF0"/>
<path d="M296.319 16.8489C295.698 15.6479 294.828 14.597 293.768 13.7681C292.714 12.9489 291.523 12.3293 290.251 11.9393C288.995 11.5484 287.688 11.3483 286.374 11.3455C284.943 11.3348 283.523 11.606 282.195 12.1437C280.881 12.6888 279.727 13.5653 278.844 14.6895C278.526 15.0572 278.231 15.4445 277.961 15.849C277.836 16.0283 277.717 16.2159 277.606 16.4091C276.727 14.8273 275.389 13.5564 273.773 12.7683C271.96 11.8427 269.959 11.3565 267.927 11.3483C266.289 11.3344 264.669 11.6994 263.192 12.4154C262.806 12.6067 262.436 12.8277 262.084 13.0763V15.933C262.558 15.3772 263.119 14.9041 263.746 14.5327C264.699 13.975 265.779 13.6768 266.88 13.6673C267.973 13.6329 269.054 13.9002 270.007 14.4403C271.001 15.0286 271.829 15.867 272.408 16.8741C273.059 17.9467 273.386 19.3527 273.386 21.0527V39.8844H278.866V20.9182C278.866 19.3471 279.185 18.0139 279.813 16.9609C280.395 15.956 281.221 15.1189 282.214 14.5299C283.171 13.9747 284.252 13.6759 285.355 13.6617C286.447 13.6347 287.528 13.9025 288.484 14.4375C289.485 15.0123 290.312 15.8504 290.88 16.8629C291.508 17.9411 291.829 19.3471 291.829 21.0471V39.8788H297.307V21.1143C297.328 19.632 296.989 18.1672 296.319 16.8489Z" fill="#FFFDF0"/>
<path d="M115.814 39.8789H121.353V0H119.055C118.195 0.000742372 117.371 0.346598 116.763 0.961561C116.156 1.57652 115.814 2.41028 115.814 3.27959V39.8789Z" fill="#FFFDF0"/>
<path d="M147.508 39.8789H152.925V0H150.751C149.891 0 149.066 0.345528 148.458 0.960571C147.849 1.57561 147.508 2.40979 147.508 3.27959V39.8789Z" fill="#FFFDF0"/>
<path d="M153.839 67.317V61.7324L153.95 62.5166L149.469 56.1143H152.208L155.636 61.0771L154.562 61.0294L157.647 56.1143H160.289L156.002 62.6931L156.24 61.6036V67.317H153.839Z" fill="#00A1AD"/>
<path d="M164.317 67.4795C163.519 67.496 162.731 67.303 162.029 66.9194C161.371 66.5529 160.824 66.0128 160.445 65.3566C160.067 64.6616 159.869 63.8813 159.869 63.0881C159.869 62.2949 160.067 61.5146 160.445 60.8195C160.827 60.1669 161.374 59.6286 162.029 59.2596C162.731 58.8808 163.513 58.6826 164.308 58.6826C165.104 58.6826 165.886 58.8808 166.588 59.2596C167.241 59.6269 167.785 60.1658 168.161 60.8195C168.534 61.5161 168.729 62.2958 168.729 63.0881C168.729 63.8803 168.534 64.6601 168.161 65.3566C167.787 66.0133 167.243 66.5538 166.588 66.9194C165.891 67.3014 165.109 67.4943 164.317 67.4795ZM164.317 65.4939C164.708 65.4994 165.092 65.3915 165.424 65.183C165.753 64.9703 166.018 64.6711 166.192 64.3176C166.379 63.9318 166.474 63.5067 166.469 63.0769C166.475 62.6415 166.38 62.2107 166.192 61.8194C166.019 61.466 165.754 61.1676 165.424 60.9568C165.092 60.7474 164.708 60.6385 164.317 60.6431C163.919 60.6353 163.527 60.7474 163.192 60.9652C162.864 61.1794 162.597 61.4768 162.417 61.8278C162.24 62.2184 162.148 62.643 162.148 63.0727C162.148 63.5024 162.24 63.927 162.417 64.3176C162.594 64.6711 162.862 64.97 163.192 65.183C163.53 65.3935 163.92 65.5014 164.317 65.4939Z" fill="#00A1AD"/>
<path d="M173.621 67.4795C173.068 67.4948 172.522 67.3532 172.045 67.0706C171.601 66.791 171.248 66.3847 171.032 65.9027C170.782 65.325 170.661 64.6987 170.677 64.0682V58.8506H172.923V63.7014C172.915 64.0446 172.98 64.3856 173.114 64.7012C173.226 64.9661 173.413 65.1913 173.652 65.3482C173.909 65.5052 174.207 65.5831 174.507 65.5722C174.739 65.5738 174.97 65.5339 175.189 65.4546C175.389 65.3789 175.572 65.2616 175.726 65.1101C175.875 64.9582 175.993 64.7784 176.075 64.5808C176.159 64.3729 176.202 64.1501 176.199 63.9254V58.8506H178.448V67.317H176.31L176.233 65.5722L176.642 65.3818C176.513 65.7823 176.298 66.1488 176.011 66.4544C175.712 66.7759 175.351 67.0315 174.95 67.205C174.531 67.3889 174.078 67.4824 173.621 67.4795Z" fill="#00A1AD"/>
<path d="M181.025 67.3172V58.8508H183.194L183.274 61.573L182.895 61.0129C183.02 60.578 183.229 60.1725 183.509 59.8198C183.783 59.4715 184.125 59.1852 184.515 58.9796C184.889 58.7798 185.305 58.6751 185.728 58.6743C185.902 58.674 186.077 58.6909 186.248 58.7247C186.394 58.7489 186.536 58.7864 186.675 58.8368L186.074 61.335C185.927 61.2626 185.773 61.2063 185.614 61.1669C185.433 61.1184 185.247 61.094 185.06 61.0941C184.819 61.0928 184.58 61.1394 184.357 61.2313C184.148 61.3192 183.96 61.4499 183.803 61.615C183.643 61.7838 183.517 61.9826 183.432 62.2004C183.34 62.4348 183.294 62.6849 183.296 62.937V67.32L181.025 67.3172Z" fill="#00A1AD"/>
<path d="M193.768 67.317V56.1143H195.886L202.012 64.4855H201.569C201.527 64.155 201.489 63.8329 201.458 63.5164C201.428 63.2 201.397 62.8835 201.372 62.5558C201.347 62.2281 201.322 61.8949 201.309 61.5476C201.295 61.2003 201.278 60.8334 201.267 60.4441C201.256 60.0548 201.267 59.6291 201.267 59.1726V56.1143H203.593V67.317H201.439L195.188 58.8673L195.789 58.8841C195.842 59.4443 195.886 59.9092 195.925 60.2985C195.964 60.6878 195.991 61.0294 196.011 61.3151C196.03 61.6008 196.052 61.8556 196.066 62.0685C196.08 62.2814 196.094 62.4858 196.099 62.6762C196.105 62.8667 196.099 63.0711 196.099 63.284V67.317H193.768Z" fill="#00A1AD"/>
<path d="M210.43 67.4793C209.605 67.4986 208.788 67.3059 208.057 66.9192C207.401 66.5618 206.853 66.0302 206.473 65.3816C206.086 64.7007 205.89 63.9262 205.905 63.1411C205.898 62.5288 206.005 61.9207 206.221 61.3486C206.421 60.8218 206.722 60.3402 207.107 59.9315C207.489 59.5297 207.95 59.2138 208.461 59.0045C209.001 58.7814 209.579 58.6691 210.162 58.674C210.704 58.6694 211.242 58.7761 211.743 58.9877C212.219 59.1883 212.648 59.4879 213.003 59.8671C213.36 60.2531 213.636 60.7073 213.817 61.203C214.012 61.7404 214.097 62.3118 214.069 62.8834V63.5892H207.329L206.963 62.1888H212.203L211.951 62.4689V62.116C211.931 61.8339 211.835 61.5627 211.674 61.3318C211.514 61.1004 211.298 60.9135 211.048 60.7885C210.782 60.6567 210.488 60.5905 210.192 60.5952C209.782 60.5845 209.377 60.681 209.015 60.8753C208.692 61.0568 208.434 61.3372 208.278 61.6763C208.099 62.078 208.012 62.5156 208.024 62.9562C208.011 63.4206 208.124 63.8796 208.35 64.2837C208.566 64.6586 208.884 64.9621 209.267 65.1576C209.703 65.3741 210.183 65.4807 210.668 65.4684C211.014 65.4725 211.358 65.4127 211.682 65.292C212.038 65.1431 212.369 64.938 212.662 64.6842L213.737 66.205C213.432 66.482 213.092 66.7165 212.726 66.9024C212.362 67.0856 211.98 67.2274 211.585 67.3253C211.208 67.4227 210.82 67.4744 210.43 67.4793Z" fill="#00A1AD"/>
<path d="M215.178 67.317L218.501 62.6931L219.733 64.1803L217.795 67.317H215.178ZM221.301 67.317L219.229 64.3259L218.595 63.4297L215.208 58.8506H217.93L219.958 61.7493L220.653 62.7099L223.993 67.317H221.301ZM220.559 63.5081L219.332 62.021L221.118 58.8506H223.763L220.559 63.5081Z" fill="#00A1AD"/>
<path d="M224.928 60.8838V58.8505H230.45V60.8838H224.928ZM226.495 67.3254V56.708H228.747V67.317L226.495 67.3254Z" fill="#00A1AD"/>
<path d="M242.594 67.4793C241.828 67.4879 241.067 67.3432 240.356 67.0536C239.691 66.7806 239.088 66.3726 238.584 65.8549C238.076 65.3271 237.68 64.7 237.421 64.0121C237.14 63.2694 237 62.4798 237.008 61.6847C237.002 60.903 237.147 60.1276 237.435 59.4022C237.712 58.7177 238.122 58.0966 238.642 57.576C239.162 57.0554 239.779 56.6459 240.459 56.3718C241.177 56.0785 241.946 55.931 242.721 55.9377C243.248 55.938 243.773 56.0106 244.28 56.1534C244.779 56.2926 245.254 56.5059 245.69 56.7863C246.11 57.0544 246.484 57.3892 246.798 57.7778L245.311 59.4442C245.071 59.1986 244.808 58.9763 244.527 58.7804C244.263 58.5961 243.975 58.45 243.671 58.3463C243.362 58.244 243.038 58.1929 242.713 58.1951C242.276 58.193 241.843 58.2796 241.439 58.4499C241.051 58.6163 240.698 58.8591 240.403 59.1641C240.099 59.4813 239.86 59.8564 239.7 60.2676C239.516 60.7226 239.422 61.2098 239.423 61.7015C239.417 62.1961 239.503 62.6874 239.678 63.1495C239.833 63.5648 240.075 63.9412 240.388 64.253C240.701 64.5648 241.076 64.8046 241.489 64.9559C241.942 65.1278 242.423 65.2123 242.907 65.2052C243.239 65.206 243.569 65.1579 243.887 65.0623C244.196 64.9686 244.491 64.8339 244.765 64.6618C245.029 64.4951 245.271 64.2956 245.485 64.0681L246.64 65.9417C246.348 66.2608 246.003 66.5261 245.621 66.7259C245.169 66.9724 244.688 67.1606 244.189 67.2861C243.667 67.4166 243.131 67.4815 242.594 67.4793Z" fill="#00A1AD"/>
<path d="M248.635 67.3172V55.4731H250.85V60.5816L250.407 60.772C250.531 60.3776 250.745 60.0185 251.033 59.7246C251.343 59.4025 251.712 59.1439 252.119 58.9628C252.537 58.775 252.99 58.6795 253.448 58.6827C254.003 58.6627 254.552 58.7963 255.037 59.0692C255.476 59.3388 255.815 59.746 256.004 60.2287C256.236 60.8383 256.347 61.4885 256.328 62.1416V67.3256H254.079V62.3096C254.089 61.9821 254.035 61.6558 253.921 61.349C253.828 61.1123 253.658 60.9147 253.44 60.7888C253.193 60.6597 252.915 60.6071 252.639 60.6376C252.4 60.6349 252.161 60.6757 251.936 60.758C251.729 60.8308 251.54 60.9473 251.382 61.0997C251.232 61.248 251.108 61.4213 251.016 61.6122C250.927 61.808 250.882 62.0212 250.883 62.2368V67.3256H248.635V67.3172Z" fill="#00A1AD"/>
<path d="M261.929 67.4795C261.258 67.4869 260.6 67.2855 260.046 66.9026C259.476 66.5056 259.017 65.965 258.717 65.3342C258.378 64.6257 258.21 63.8467 258.224 63.0601C258.208 62.2759 258.38 61.4994 258.725 60.7971C259.032 60.1672 259.498 59.6309 260.076 59.2427C260.654 58.8661 261.328 58.6712 262.015 58.6826C262.4 58.6781 262.783 58.7407 263.148 58.8675C263.474 58.9821 263.778 59.1526 264.048 59.3716C264.304 59.5809 264.526 59.8294 264.707 60.1081C264.883 60.3827 265.011 60.6858 265.086 61.0044L264.61 60.9231V58.859H266.842V67.3255H264.579V65.295L265.086 65.2474C264.997 65.5494 264.858 65.8336 264.673 66.0876C264.478 66.3619 264.241 66.603 263.97 66.8018C263.682 67.0129 263.365 67.18 263.028 67.2975C262.675 67.4203 262.303 67.4819 261.929 67.4795ZM262.547 65.5191C262.937 65.5264 263.322 65.4205 263.654 65.2138C263.976 65.0063 264.231 64.7085 264.388 64.3568C264.571 63.953 264.661 63.5125 264.651 63.0685C264.66 62.6326 264.57 62.2005 264.388 61.8054C264.228 61.4557 263.974 61.1587 263.654 60.9484C263.323 60.7373 262.938 60.6292 262.547 60.6375C262.162 60.63 261.784 60.7382 261.461 60.9484C261.144 61.1625 260.89 61.4584 260.724 61.8054C260.536 62.1988 260.441 62.6313 260.447 63.0685C260.441 63.5137 260.536 63.9545 260.724 64.3568C260.887 64.7057 261.142 65.0024 261.461 65.2138C261.787 65.4175 262.164 65.5207 262.547 65.5107V65.5191Z" fill="#00A1AD"/>
<path d="M269.414 67.3171V58.8507H271.566L271.63 60.5815L271.186 60.7719C271.309 60.3776 271.522 60.0185 271.81 59.7245C272.12 59.4024 272.488 59.1438 272.895 58.9627C273.314 58.7749 273.767 58.6794 274.224 58.6826C274.779 58.6626 275.329 58.7962 275.814 59.0691C276.254 59.3371 276.594 59.7448 276.781 60.2286C277.013 60.8382 277.123 61.4884 277.105 62.1415V67.3255H274.856V62.3095C274.865 61.982 274.812 61.6557 274.698 61.3489C274.605 61.1122 274.435 60.9146 274.216 60.7887C273.97 60.6593 273.691 60.6067 273.416 60.6375C273.176 60.6348 272.938 60.6756 272.712 60.7579C272.506 60.8307 272.317 60.9472 272.158 61.0996C272.008 61.2472 271.885 61.4208 271.796 61.6121C271.704 61.8072 271.658 62.0208 271.66 62.2367V67.3255H269.414V67.3171Z" fill="#00A1AD"/>
<path d="M283.388 71.0001C282.723 71.0006 282.061 70.9005 281.425 70.7032C280.862 70.5446 280.332 70.2877 279.857 69.9443L280.649 68.3115C280.878 68.47 281.122 68.6043 281.378 68.712C281.656 68.8317 281.944 68.9255 282.239 68.992C282.544 69.0564 282.855 69.0883 283.167 69.0872C283.63 69.1032 284.091 69.0162 284.518 68.8324C284.859 68.673 285.14 68.4056 285.318 68.0706C285.515 67.6711 285.61 67.2283 285.595 66.7823V65.3091L285.975 65.3903C285.902 65.7591 285.72 66.0969 285.454 66.3594C285.146 66.6657 284.78 66.9049 284.377 67.0624C283.955 67.2364 283.503 67.3258 283.047 67.3256C282.32 67.3409 281.602 67.1529 280.973 66.7823C280.373 66.4198 279.882 65.9002 279.55 65.2783C279.192 64.599 279.011 63.8383 279.026 63.0686C279.011 62.2828 279.188 61.5054 279.541 60.8056C279.865 60.1693 280.352 59.6325 280.951 59.2513C281.562 58.8716 282.267 58.6772 282.984 58.6911C283.291 58.6909 283.597 58.7286 283.895 58.8032C284.169 58.8686 284.435 58.9663 284.687 59.0944C284.923 59.2198 285.146 59.37 285.352 59.5425C285.537 59.696 285.7 59.8762 285.833 60.0775C285.953 60.2503 286.034 60.447 286.072 60.6544L285.612 60.7832L285.676 58.8452H287.83V66.6871C287.84 67.3138 287.738 67.9372 287.528 68.5271C287.34 69.0389 287.04 69.5012 286.65 69.8798C286.245 70.2585 285.765 70.545 285.241 70.72C284.642 70.9152 284.017 71.0098 283.388 71.0001ZM283.452 65.494C283.86 65.5034 284.263 65.3977 284.615 65.1887C284.945 64.9894 285.212 64.6976 285.382 64.3485C285.559 63.947 285.651 63.5124 285.651 63.0728C285.651 62.6332 285.559 62.1985 285.382 61.7971C285.214 61.4425 284.947 61.1448 284.615 60.9401C284.262 60.7329 283.86 60.6282 283.452 60.6376C283.047 60.6295 282.649 60.7373 282.302 60.9485C281.971 61.1547 281.705 61.4519 281.535 61.8055C281.346 62.1986 281.251 62.6314 281.258 63.0686C281.252 63.5093 281.347 63.9456 281.535 64.3429C281.705 64.6921 281.972 64.9839 282.302 65.1831C282.649 65.3933 283.047 65.501 283.452 65.494Z" fill="#00A1AD"/>
<path d="M294.356 67.4798C293.531 67.4991 292.715 67.3064 291.983 66.9197C291.327 66.5622 290.779 66.0307 290.399 65.3821C290.017 64.6998 289.825 63.9254 289.845 63.1415C289.838 62.5293 289.945 61.9212 290.161 61.3491C290.361 60.8223 290.662 60.3407 291.047 59.932C291.428 59.5309 291.889 59.2151 292.398 59.0049C292.939 58.7824 293.518 58.6701 294.102 58.6745C294.644 58.6699 295.182 58.7766 295.683 58.9881C296.159 59.1888 296.588 59.4884 296.943 59.8675C297.3 60.2536 297.576 60.7078 297.757 61.2035C297.952 61.7409 298.037 62.3123 298.009 62.8839V63.5896H291.282L290.917 62.1893H296.156L295.904 62.4694V62.1165C295.885 61.8344 295.789 61.5632 295.627 61.3323C295.467 61.1009 295.252 60.914 295.002 60.789C294.735 60.6572 294.442 60.5909 294.146 60.5957C293.736 60.585 293.331 60.6815 292.969 60.8758C292.646 61.0573 292.388 61.3377 292.232 61.6768C292.053 62.0784 291.966 62.5161 291.977 62.9567C291.965 63.421 292.078 63.88 292.304 64.2842C292.52 64.6591 292.838 64.9626 293.221 65.158C293.656 65.3746 294.137 65.4812 294.622 65.4689C294.967 65.4732 295.31 65.4134 295.633 65.2925C295.983 65.1462 296.309 64.9448 296.597 64.6959L297.671 66.2167C297.367 66.4937 297.027 66.7282 296.66 66.9141C296.297 67.0973 295.914 67.2391 295.519 67.337C295.139 67.4312 294.748 67.4792 294.356 67.4798Z" fill="#00A1AD"/>
</g>
<defs>
<clipPath id="clip0_66_7389">
<rect width="298" height="71" fill="white"/>
</clipPath>
</defs>
</svg>
