<svg width="825" height="568" viewBox="0 0 825 568" fill="none" xmlns="http://www.w3.org/2000/svg">
<path d="M68 53.5V53.5C68 150.426 146.574 229 243.5 229H448H828" stroke="#4DB3C7" stroke-width="4"/>
<path d="M1169 229H692C613.023 229 549 164.977 549 86V86V46" stroke="#FFFDF1" stroke-width="4"/>
<path d="M109 404.5V404.5C109 307.574 187.574 229 284.5 229H489H869" stroke="#FFFDF1" stroke-width="4"/>
<path d="M349 568V429C349 318.543 438.543 229 549 229H1819" stroke="#4DB3C7" stroke-width="4"/>
<path d="M826 229L37 229" stroke="#FFFDF1" stroke-width="4"/>
<circle cx="109" cy="407" r="4" fill="#FFFDF1"/>
<circle cx="68" cy="50" r="4" fill="#4DB3C7"/>
<circle cx="549" cy="44" r="4" fill="#FFFDF1"/>
<path d="M5.634 17.436C6.954 17.436 8.112 17.694 9.108 18.21C10.116 18.726 10.89 19.464 11.43 20.424C11.982 21.372 12.258 22.476 12.258 23.736C12.258 24.996 11.982 26.1 11.43 27.048C10.89 27.984 10.116 28.71 9.108 29.226C8.112 29.742 6.954 30 5.634 30H1.242V17.436H5.634ZM5.544 27.858C6.864 27.858 7.884 27.498 8.604 26.778C9.324 26.058 9.684 25.044 9.684 23.736C9.684 22.428 9.324 21.408 8.604 20.676C7.884 19.932 6.864 19.56 5.544 19.56H3.762V27.858H5.544ZM23.4143 24.798C23.4143 25.158 23.3903 25.482 23.3423 25.77H16.0523C16.1123 26.49 16.3643 27.054 16.8083 27.462C17.2523 27.87 17.7983 28.074 18.4463 28.074C19.3823 28.074 20.0483 27.672 20.4443 26.868H23.1623C22.8743 27.828 22.3223 28.62 21.5063 29.244C20.6903 29.856 19.6883 30.162 18.5003 30.162C17.5403 30.162 16.6763 29.952 15.9083 29.532C15.1523 29.1 14.5583 28.494 14.1263 27.714C13.7063 26.934 13.4963 26.034 13.4963 25.014C13.4963 23.982 13.7063 23.076 14.1263 22.296C14.5463 21.516 15.1343 20.916 15.8903 20.496C16.6463 20.076 17.5163 19.866 18.5003 19.866C19.4483 19.866 20.2943 20.07 21.0383 20.478C21.7943 20.886 22.3763 21.468 22.7843 22.224C23.2043 22.968 23.4143 23.826 23.4143 24.798ZM20.8043 24.078C20.7923 23.43 20.5583 22.914 20.1023 22.53C19.6463 22.134 19.0883 21.936 18.4283 21.936C17.8043 21.936 17.2763 22.128 16.8443 22.512C16.4243 22.884 16.1663 23.406 16.0703 24.078H20.8043ZM29.0697 30.162C28.2537 30.162 27.5217 30.018 26.8737 29.73C26.2257 29.43 25.7097 29.028 25.3257 28.524C24.9537 28.02 24.7497 27.462 24.7137 26.85H27.2517C27.2997 27.234 27.4857 27.552 27.8097 27.804C28.1457 28.056 28.5597 28.182 29.0517 28.182C29.5317 28.182 29.9037 28.086 30.1677 27.894C30.4437 27.702 30.5817 27.456 30.5817 27.156C30.5817 26.832 30.4137 26.592 30.0777 26.436C29.7537 26.268 29.2317 26.088 28.5117 25.896C27.7677 25.716 27.1557 25.53 26.6757 25.338C26.2077 25.146 25.7997 24.852 25.4517 24.456C25.1157 24.06 24.9477 23.526 24.9477 22.854C24.9477 22.302 25.1037 21.798 25.4157 21.342C25.7397 20.886 26.1957 20.526 26.7837 20.262C27.3837 19.998 28.0857 19.866 28.8897 19.866C30.0777 19.866 31.0257 20.166 31.7337 20.766C32.4417 21.354 32.8317 22.152 32.9037 23.16H30.4917C30.4557 22.764 30.2877 22.452 29.9877 22.224C29.6997 21.984 29.3097 21.864 28.8177 21.864C28.3617 21.864 28.0077 21.948 27.7557 22.116C27.5157 22.284 27.3957 22.518 27.3957 22.818C27.3957 23.154 27.5637 23.412 27.8997 23.592C28.2357 23.76 28.7577 23.934 29.4657 24.114C30.1857 24.294 30.7797 24.48 31.2477 24.672C31.7157 24.864 32.1177 25.164 32.4537 25.572C32.8017 25.968 32.9817 26.496 32.9937 27.156C32.9937 27.732 32.8317 28.248 32.5077 28.704C32.1957 29.16 31.7397 29.52 31.1397 29.784C30.5517 30.036 29.8617 30.162 29.0697 30.162ZM36.3403 18.84C35.8963 18.84 35.5243 18.702 35.2243 18.426C34.9363 18.138 34.7923 17.784 34.7923 17.364C34.7923 16.944 34.9363 16.596 35.2243 16.32C35.5243 16.032 35.8963 15.888 36.3403 15.888C36.7843 15.888 37.1503 16.032 37.4383 16.32C37.7383 16.596 37.8883 16.944 37.8883 17.364C37.8883 17.784 37.7383 18.138 37.4383 18.426C37.1503 18.702 36.7843 18.84 36.3403 18.84ZM37.5823 20.028V30H35.0623V20.028H37.5823ZM43.9781 19.866C44.7221 19.866 45.3761 20.016 45.9401 20.316C46.5041 20.604 46.9481 20.982 47.2721 21.45V20.028H49.8101V30.072C49.8101 30.996 49.6241 31.818 49.2521 32.538C48.8801 33.27 48.3221 33.846 47.5781 34.266C46.8341 34.698 45.9341 34.914 44.8781 34.914C43.4621 34.914 42.2981 34.584 41.3861 33.924C40.4861 33.264 39.9761 32.364 39.8561 31.224H42.3581C42.4901 31.68 42.7721 32.04 43.2041 32.304C43.6481 32.58 44.1821 32.718 44.8061 32.718C45.5381 32.718 46.1321 32.496 46.5881 32.052C47.0441 31.62 47.2721 30.96 47.2721 30.072V28.524C46.9481 28.992 46.4981 29.382 45.9221 29.694C45.3581 30.006 44.7101 30.162 43.9781 30.162C43.1381 30.162 42.3701 29.946 41.6741 29.514C40.9781 29.082 40.4261 28.476 40.0181 27.696C39.6221 26.904 39.4241 25.998 39.4241 24.978C39.4241 23.97 39.6221 23.076 40.0181 22.296C40.4261 21.516 40.9721 20.916 41.6561 20.496C42.3521 20.076 43.1261 19.866 43.9781 19.866ZM47.2721 25.014C47.2721 24.402 47.1521 23.88 46.9121 23.448C46.6721 23.004 46.3481 22.668 45.9401 22.44C45.5321 22.2 45.0941 22.08 44.6261 22.08C44.1581 22.08 43.7261 22.194 43.3301 22.422C42.9341 22.65 42.6101 22.986 42.3581 23.43C42.1181 23.862 41.9981 24.378 41.9981 24.978C41.9981 25.578 42.1181 26.106 42.3581 26.562C42.6101 27.006 42.9341 27.348 43.3301 27.588C43.7381 27.828 44.1701 27.948 44.6261 27.948C45.0941 27.948 45.5321 27.834 45.9401 27.606C46.3481 27.366 46.6721 27.03 46.9121 26.598C47.1521 26.154 47.2721 25.626 47.2721 25.014ZM57.7973 19.884C58.9853 19.884 59.9453 20.262 60.6773 21.018C61.4093 21.762 61.7753 22.806 61.7753 24.15V30H59.2553V24.492C59.2553 23.7 59.0573 23.094 58.6613 22.674C58.2653 22.242 57.7253 22.026 57.0413 22.026C56.3453 22.026 55.7933 22.242 55.3853 22.674C54.9893 23.094 54.7913 23.7 54.7913 24.492V30H52.2713V20.028H54.7913V21.27C55.1273 20.838 55.5533 20.502 56.0693 20.262C56.5973 20.01 57.1733 19.884 57.7973 19.884ZM74.9408 30L72.1688 25.104H70.9808V30H68.4608V17.436H73.1768C74.1488 17.436 74.9768 17.61 75.6608 17.958C76.3448 18.294 76.8548 18.756 77.1908 19.344C77.5388 19.92 77.7128 20.568 77.7128 21.288C77.7128 22.116 77.4728 22.866 76.9928 23.538C76.5128 24.198 75.7988 24.654 74.8508 24.906L77.8568 30H74.9408ZM70.9808 23.214H73.0868C73.7708 23.214 74.2808 23.052 74.6168 22.728C74.9528 22.392 75.1208 21.93 75.1208 21.342C75.1208 20.766 74.9528 20.322 74.6168 20.01C74.2808 19.686 73.7708 19.524 73.0868 19.524H70.9808V23.214ZM89.262 24.798C89.262 25.158 89.238 25.482 89.19 25.77H81.9C81.96 26.49 82.212 27.054 82.656 27.462C83.1 27.87 83.646 28.074 84.294 28.074C85.23 28.074 85.896 27.672 86.292 26.868H89.01C88.722 27.828 88.17 28.62 87.354 29.244C86.538 29.856 85.536 30.162 84.348 30.162C83.388 30.162 82.524 29.952 81.756 29.532C81 29.1 80.406 28.494 79.974 27.714C79.554 26.934 79.344 26.034 79.344 25.014C79.344 23.982 79.554 23.076 79.974 22.296C80.394 21.516 80.982 20.916 81.738 20.496C82.494 20.076 83.364 19.866 84.348 19.866C85.296 19.866 86.142 20.07 86.886 20.478C87.642 20.886 88.224 21.468 88.632 22.224C89.052 22.968 89.262 23.826 89.262 24.798ZM86.652 24.078C86.64 23.43 86.406 22.914 85.95 22.53C85.494 22.134 84.936 21.936 84.276 21.936C83.652 21.936 83.124 22.128 82.692 22.512C82.272 22.884 82.014 23.406 81.918 24.078H86.652ZM94.9174 30.162C94.1014 30.162 93.3694 30.018 92.7214 29.73C92.0734 29.43 91.5574 29.028 91.1734 28.524C90.8014 28.02 90.5974 27.462 90.5614 26.85H93.0994C93.1474 27.234 93.3334 27.552 93.6574 27.804C93.9934 28.056 94.4074 28.182 94.8994 28.182C95.3794 28.182 95.7514 28.086 96.0154 27.894C96.2914 27.702 96.4294 27.456 96.4294 27.156C96.4294 26.832 96.2614 26.592 95.9254 26.436C95.6014 26.268 95.0794 26.088 94.3594 25.896C93.6154 25.716 93.0034 25.53 92.5234 25.338C92.0554 25.146 91.6474 24.852 91.2994 24.456C90.9634 24.06 90.7954 23.526 90.7954 22.854C90.7954 22.302 90.9514 21.798 91.2634 21.342C91.5874 20.886 92.0434 20.526 92.6314 20.262C93.2314 19.998 93.9334 19.866 94.7374 19.866C95.9254 19.866 96.8734 20.166 97.5814 20.766C98.2894 21.354 98.6794 22.152 98.7514 23.16H96.3394C96.3034 22.764 96.1354 22.452 95.8354 22.224C95.5474 21.984 95.1574 21.864 94.6654 21.864C94.2094 21.864 93.8554 21.948 93.6034 22.116C93.3634 22.284 93.2434 22.518 93.2434 22.818C93.2434 23.154 93.4114 23.412 93.7474 23.592C94.0834 23.76 94.6054 23.934 95.3134 24.114C96.0334 24.294 96.6274 24.48 97.0954 24.672C97.5634 24.864 97.9654 25.164 98.3014 25.572C98.6494 25.968 98.8294 26.496 98.8414 27.156C98.8414 27.732 98.6794 28.248 98.3554 28.704C98.0434 29.16 97.5874 29.52 96.9874 29.784C96.3994 30.036 95.7094 30.162 94.9174 30.162ZM110.18 24.798C110.18 25.158 110.156 25.482 110.108 25.77H102.818C102.878 26.49 103.13 27.054 103.574 27.462C104.018 27.87 104.564 28.074 105.212 28.074C106.148 28.074 106.814 27.672 107.21 26.868H109.928C109.64 27.828 109.088 28.62 108.272 29.244C107.456 29.856 106.454 30.162 105.266 30.162C104.306 30.162 103.442 29.952 102.674 29.532C101.918 29.1 101.324 28.494 100.892 27.714C100.472 26.934 100.262 26.034 100.262 25.014C100.262 23.982 100.472 23.076 100.892 22.296C101.312 21.516 101.9 20.916 102.656 20.496C103.412 20.076 104.282 19.866 105.266 19.866C106.214 19.866 107.06 20.07 107.804 20.478C108.56 20.886 109.142 21.468 109.55 22.224C109.97 22.968 110.18 23.826 110.18 24.798ZM107.57 24.078C107.558 23.43 107.324 22.914 106.868 22.53C106.412 22.134 105.854 21.936 105.194 21.936C104.57 21.936 104.042 22.128 103.61 22.512C103.19 22.884 102.932 23.406 102.836 24.078H107.57ZM111.371 24.978C111.371 23.97 111.569 23.076 111.965 22.296C112.373 21.516 112.919 20.916 113.603 20.496C114.299 20.076 115.073 19.866 115.925 19.866C116.669 19.866 117.317 20.016 117.869 20.316C118.433 20.616 118.883 20.994 119.219 21.45V20.028H121.757V30H119.219V28.542C118.895 29.01 118.445 29.4 117.869 29.712C117.305 30.012 116.651 30.162 115.907 30.162C115.067 30.162 114.299 29.946 113.603 29.514C112.919 29.082 112.373 28.476 111.965 27.696C111.569 26.904 111.371 25.998 111.371 24.978ZM119.219 25.014C119.219 24.402 119.099 23.88 118.859 23.448C118.619 23.004 118.295 22.668 117.887 22.44C117.479 22.2 117.041 22.08 116.573 22.08C116.105 22.08 115.673 22.194 115.277 22.422C114.881 22.65 114.557 22.986 114.305 23.43C114.065 23.862 113.945 24.378 113.945 24.978C113.945 25.578 114.065 26.106 114.305 26.562C114.557 27.006 114.881 27.348 115.277 27.588C115.685 27.828 116.117 27.948 116.573 27.948C117.041 27.948 117.479 27.834 117.887 27.606C118.295 27.366 118.619 27.03 118.859 26.598C119.099 26.154 119.219 25.626 119.219 25.014ZM126.739 21.576C127.063 21.048 127.483 20.634 127.999 20.334C128.527 20.034 129.127 19.884 129.799 19.884V22.53H129.133C128.341 22.53 127.741 22.716 127.333 23.088C126.937 23.46 126.739 24.108 126.739 25.032V30H124.219V20.028H126.739V21.576ZM130.848 25.014C130.848 23.982 131.058 23.082 131.478 22.314C131.898 21.534 132.48 20.934 133.224 20.514C133.968 20.082 134.82 19.866 135.78 19.866C137.016 19.866 138.036 20.178 138.84 20.802C139.656 21.414 140.202 22.278 140.478 23.394H137.76C137.616 22.962 137.37 22.626 137.022 22.386C136.686 22.134 136.266 22.008 135.762 22.008C135.042 22.008 134.472 22.272 134.052 22.8C133.632 23.316 133.422 24.054 133.422 25.014C133.422 25.962 133.632 26.7 134.052 27.228C134.472 27.744 135.042 28.002 135.762 28.002C136.782 28.002 137.448 27.546 137.76 26.634H140.478C140.202 27.714 139.656 28.572 138.84 29.208C138.024 29.844 137.004 30.162 135.78 30.162C134.82 30.162 133.968 29.952 133.224 29.532C132.48 29.1 131.898 28.5 131.478 27.732C131.058 26.952 130.848 26.046 130.848 25.014ZM147.94 19.884C148.696 19.884 149.368 20.052 149.956 20.388C150.544 20.712 151 21.198 151.324 21.846C151.66 22.482 151.828 23.25 151.828 24.15V30H149.308V24.492C149.308 23.7 149.11 23.094 148.714 22.674C148.318 22.242 147.778 22.026 147.094 22.026C146.398 22.026 145.846 22.242 145.438 22.674C145.042 23.094 144.844 23.7 144.844 24.492V30H142.324V16.68H144.844V21.27C145.168 20.838 145.6 20.502 146.14 20.262C146.68 20.01 147.28 19.884 147.94 19.884Z" fill="#00A3AF"/>
<path d="M383.762 499.436V512H381.242V499.436H383.762ZM385.604 506.978C385.604 505.97 385.802 505.076 386.198 504.296C386.606 503.516 387.158 502.916 387.854 502.496C388.55 502.076 389.324 501.866 390.176 501.866C390.824 501.866 391.442 502.01 392.03 502.298C392.618 502.574 393.086 502.946 393.434 503.414V498.68H395.99V512H393.434V510.524C393.122 511.016 392.684 511.412 392.12 511.712C391.556 512.012 390.902 512.162 390.158 512.162C389.318 512.162 388.55 511.946 387.854 511.514C387.158 511.082 386.606 510.476 386.198 509.696C385.802 508.904 385.604 507.998 385.604 506.978ZM393.452 507.014C393.452 506.402 393.332 505.88 393.092 505.448C392.852 505.004 392.528 504.668 392.12 504.44C391.712 504.2 391.274 504.08 390.806 504.08C390.338 504.08 389.906 504.194 389.51 504.422C389.114 504.65 388.79 504.986 388.538 505.43C388.298 505.862 388.178 506.378 388.178 506.978C388.178 507.578 388.298 508.106 388.538 508.562C388.79 509.006 389.114 509.348 389.51 509.588C389.918 509.828 390.35 509.948 390.806 509.948C391.274 509.948 391.712 509.834 392.12 509.606C392.528 509.366 392.852 509.03 393.092 508.598C393.332 508.154 393.452 507.626 393.452 507.014ZM407.721 506.798C407.721 507.158 407.697 507.482 407.649 507.77H400.359C400.419 508.49 400.671 509.054 401.115 509.462C401.559 509.87 402.105 510.074 402.753 510.074C403.689 510.074 404.355 509.672 404.751 508.868H407.469C407.181 509.828 406.629 510.62 405.813 511.244C404.997 511.856 403.995 512.162 402.807 512.162C401.847 512.162 400.983 511.952 400.215 511.532C399.459 511.1 398.865 510.494 398.433 509.714C398.013 508.934 397.803 508.034 397.803 507.014C397.803 505.982 398.013 505.076 398.433 504.296C398.853 503.516 399.441 502.916 400.197 502.496C400.953 502.076 401.823 501.866 402.807 501.866C403.755 501.866 404.601 502.07 405.345 502.478C406.101 502.886 406.683 503.468 407.091 504.224C407.511 504.968 407.721 505.826 407.721 506.798ZM405.111 506.078C405.099 505.43 404.865 504.914 404.409 504.53C403.953 504.134 403.395 503.936 402.735 503.936C402.111 503.936 401.583 504.128 401.151 504.512C400.731 504.884 400.473 505.406 400.377 506.078H405.111ZM408.912 506.978C408.912 505.97 409.11 505.076 409.506 504.296C409.914 503.516 410.46 502.916 411.144 502.496C411.84 502.076 412.614 501.866 413.466 501.866C414.21 501.866 414.858 502.016 415.41 502.316C415.974 502.616 416.424 502.994 416.76 503.45V502.028H419.298V512H416.76V510.542C416.436 511.01 415.986 511.4 415.41 511.712C414.846 512.012 414.192 512.162 413.448 512.162C412.608 512.162 411.84 511.946 411.144 511.514C410.46 511.082 409.914 510.476 409.506 509.696C409.11 508.904 408.912 507.998 408.912 506.978ZM416.76 507.014C416.76 506.402 416.64 505.88 416.4 505.448C416.16 505.004 415.836 504.668 415.428 504.44C415.02 504.2 414.582 504.08 414.114 504.08C413.646 504.08 413.214 504.194 412.818 504.422C412.422 504.65 412.098 504.986 411.846 505.43C411.606 505.862 411.486 506.378 411.486 506.978C411.486 507.578 411.606 508.106 411.846 508.562C412.098 509.006 412.422 509.348 412.818 509.588C413.226 509.828 413.658 509.948 414.114 509.948C414.582 509.948 415.02 509.834 415.428 509.606C415.836 509.366 416.16 509.03 416.4 508.598C416.64 508.154 416.76 507.626 416.76 507.014ZM424.694 504.098V508.922C424.694 509.258 424.772 509.504 424.928 509.66C425.096 509.804 425.372 509.876 425.756 509.876H426.926V512H425.342C423.218 512 422.156 510.968 422.156 508.904V504.098H420.968V502.028H422.156V499.562H424.694V502.028H426.926V504.098H424.694ZM430.016 500.84C429.572 500.84 429.2 500.702 428.9 500.426C428.612 500.138 428.468 499.784 428.468 499.364C428.468 498.944 428.612 498.596 428.9 498.32C429.2 498.032 429.572 497.888 430.016 497.888C430.46 497.888 430.826 498.032 431.114 498.32C431.414 498.596 431.564 498.944 431.564 499.364C431.564 499.784 431.414 500.138 431.114 500.426C430.826 500.702 430.46 500.84 430.016 500.84ZM431.258 502.028V512H428.738V502.028H431.258ZM438.176 512.162C437.216 512.162 436.352 511.952 435.584 511.532C434.816 511.1 434.21 510.494 433.766 509.714C433.334 508.934 433.118 508.034 433.118 507.014C433.118 505.994 433.34 505.094 433.784 504.314C434.24 503.534 434.858 502.934 435.638 502.514C436.418 502.082 437.288 501.866 438.248 501.866C439.208 501.866 440.078 502.082 440.858 502.514C441.638 502.934 442.25 503.534 442.694 504.314C443.15 505.094 443.378 505.994 443.378 507.014C443.378 508.034 443.144 508.934 442.676 509.714C442.22 510.494 441.596 511.1 440.804 511.532C440.024 511.952 439.148 512.162 438.176 512.162ZM438.176 509.966C438.632 509.966 439.058 509.858 439.454 509.642C439.862 509.414 440.186 509.078 440.426 508.634C440.666 508.19 440.786 507.65 440.786 507.014C440.786 506.066 440.534 505.34 440.03 504.836C439.538 504.32 438.932 504.062 438.212 504.062C437.492 504.062 436.886 504.32 436.394 504.836C435.914 505.34 435.674 506.066 435.674 507.014C435.674 507.962 435.908 508.694 436.376 509.21C436.856 509.714 437.456 509.966 438.176 509.966ZM450.752 501.884C451.94 501.884 452.9 502.262 453.632 503.018C454.364 503.762 454.73 504.806 454.73 506.15V512H452.21V506.492C452.21 505.7 452.012 505.094 451.616 504.674C451.22 504.242 450.68 504.026 449.996 504.026C449.3 504.026 448.748 504.242 448.34 504.674C447.944 505.094 447.746 505.7 447.746 506.492V512H445.226V502.028H447.746V503.27C448.082 502.838 448.508 502.502 449.024 502.262C449.552 502.01 450.128 501.884 450.752 501.884ZM398.036 529.436L394.526 542H391.556L389.198 533.054L386.732 542L383.78 542.018L380.396 529.436H383.096L385.31 539.192L387.866 529.436H390.674L393.086 539.138L395.318 529.436H398.036ZM405.297 531.884C406.053 531.884 406.725 532.052 407.313 532.388C407.901 532.712 408.357 533.198 408.681 533.846C409.017 534.482 409.185 535.25 409.185 536.15V542H406.665V536.492C406.665 535.7 406.467 535.094 406.071 534.674C405.675 534.242 405.135 534.026 404.451 534.026C403.755 534.026 403.203 534.242 402.795 534.674C402.399 535.094 402.201 535.7 402.201 536.492V542H399.681V528.68H402.201V533.27C402.525 532.838 402.957 532.502 403.497 532.262C404.037 532.01 404.637 531.884 405.297 531.884ZM412.86 530.84C412.416 530.84 412.044 530.702 411.744 530.426C411.456 530.138 411.312 529.784 411.312 529.364C411.312 528.944 411.456 528.596 411.744 528.32C412.044 528.032 412.416 527.888 412.86 527.888C413.304 527.888 413.67 528.032 413.958 528.32C414.258 528.596 414.408 528.944 414.408 529.364C414.408 529.784 414.258 530.138 413.958 530.426C413.67 530.702 413.304 530.84 412.86 530.84ZM414.102 532.028V542H411.582V532.028H414.102ZM419.526 534.098V538.922C419.526 539.258 419.604 539.504 419.76 539.66C419.928 539.804 420.204 539.876 420.588 539.876H421.758V542H420.174C418.05 542 416.988 540.968 416.988 538.904V534.098H415.8V532.028H416.988V529.562H419.526V532.028H421.758V534.098H419.526ZM432.84 536.798C432.84 537.158 432.816 537.482 432.768 537.77H425.478C425.538 538.49 425.79 539.054 426.234 539.462C426.678 539.87 427.224 540.074 427.872 540.074C428.808 540.074 429.474 539.672 429.87 538.868H432.588C432.3 539.828 431.748 540.62 430.932 541.244C430.116 541.856 429.114 542.162 427.926 542.162C426.966 542.162 426.102 541.952 425.334 541.532C424.578 541.1 423.984 540.494 423.552 539.714C423.132 538.934 422.922 538.034 422.922 537.014C422.922 535.982 423.132 535.076 423.552 534.296C423.972 533.516 424.56 532.916 425.316 532.496C426.072 532.076 426.942 531.866 427.926 531.866C428.874 531.866 429.72 532.07 430.464 532.478C431.22 532.886 431.802 533.468 432.21 534.224C432.63 534.968 432.84 535.826 432.84 536.798ZM430.23 536.078C430.218 535.43 429.984 534.914 429.528 534.53C429.072 534.134 428.514 533.936 427.854 533.936C427.23 533.936 426.702 534.128 426.27 534.512C425.85 534.884 425.592 535.406 425.496 536.078H430.23ZM437.2 533.486C437.524 533.006 437.968 532.616 438.532 532.316C439.108 532.016 439.762 531.866 440.494 531.866C441.346 531.866 442.114 532.076 442.798 532.496C443.494 532.916 444.04 533.516 444.436 534.296C444.844 535.064 445.048 535.958 445.048 536.978C445.048 537.998 444.844 538.904 444.436 539.696C444.04 540.476 443.494 541.082 442.798 541.514C442.114 541.946 441.346 542.162 440.494 542.162C439.75 542.162 439.096 542.018 438.532 541.73C437.98 541.43 437.536 541.046 437.2 540.578V542H434.68V528.68H437.2V533.486ZM442.474 536.978C442.474 536.378 442.348 535.862 442.096 535.43C441.856 534.986 441.532 534.65 441.124 534.422C440.728 534.194 440.296 534.08 439.828 534.08C439.372 534.08 438.94 534.2 438.532 534.44C438.136 534.668 437.812 535.004 437.56 535.448C437.32 535.892 437.2 536.414 437.2 537.014C437.2 537.614 437.32 538.136 437.56 538.58C437.812 539.024 438.136 539.366 438.532 539.606C438.94 539.834 439.372 539.948 439.828 539.948C440.296 539.948 440.728 539.828 441.124 539.588C441.532 539.348 441.856 539.006 442.096 538.562C442.348 538.118 442.474 537.59 442.474 536.978ZM451.307 542.162C450.347 542.162 449.483 541.952 448.715 541.532C447.947 541.1 447.341 540.494 446.897 539.714C446.465 538.934 446.249 538.034 446.249 537.014C446.249 535.994 446.471 535.094 446.915 534.314C447.371 533.534 447.989 532.934 448.769 532.514C449.549 532.082 450.419 531.866 451.379 531.866C452.339 531.866 453.209 532.082 453.989 532.514C454.769 532.934 455.381 533.534 455.825 534.314C456.281 535.094 456.509 535.994 456.509 537.014C456.509 538.034 456.275 538.934 455.807 539.714C455.351 540.494 454.727 541.1 453.935 541.532C453.155 541.952 452.279 542.162 451.307 542.162ZM451.307 539.966C451.763 539.966 452.189 539.858 452.585 539.642C452.993 539.414 453.317 539.078 453.557 538.634C453.797 538.19 453.917 537.65 453.917 537.014C453.917 536.066 453.665 535.34 453.161 534.836C452.669 534.32 452.063 534.062 451.343 534.062C450.623 534.062 450.017 534.32 449.525 534.836C449.045 535.34 448.805 536.066 448.805 537.014C448.805 537.962 449.039 538.694 449.507 539.21C449.987 539.714 450.587 539.966 451.307 539.966ZM457.709 536.978C457.709 535.97 457.907 535.076 458.303 534.296C458.711 533.516 459.257 532.916 459.941 532.496C460.637 532.076 461.411 531.866 462.263 531.866C463.007 531.866 463.655 532.016 464.207 532.316C464.771 532.616 465.221 532.994 465.557 533.45V532.028H468.095V542H465.557V540.542C465.233 541.01 464.783 541.4 464.207 541.712C463.643 542.012 462.989 542.162 462.245 542.162C461.405 542.162 460.637 541.946 459.941 541.514C459.257 541.082 458.711 540.476 458.303 539.696C457.907 538.904 457.709 537.998 457.709 536.978ZM465.557 537.014C465.557 536.402 465.437 535.88 465.197 535.448C464.957 535.004 464.633 534.668 464.225 534.44C463.817 534.2 463.379 534.08 462.911 534.08C462.443 534.08 462.011 534.194 461.615 534.422C461.219 534.65 460.895 534.986 460.643 535.43C460.403 535.862 460.283 536.378 460.283 536.978C460.283 537.578 460.403 538.106 460.643 538.562C460.895 539.006 461.219 539.348 461.615 539.588C462.023 539.828 462.455 539.948 462.911 539.948C463.379 539.948 463.817 539.834 464.225 539.606C464.633 539.366 464.957 539.03 465.197 538.598C465.437 538.154 465.557 537.626 465.557 537.014ZM473.076 533.576C473.4 533.048 473.82 532.634 474.336 532.334C474.864 532.034 475.464 531.884 476.136 531.884V534.53H475.47C474.678 534.53 474.078 534.716 473.67 535.088C473.274 535.46 473.076 536.108 473.076 537.032V542H470.556V532.028H473.076V533.576ZM477.186 536.978C477.186 535.97 477.384 535.076 477.78 534.296C478.188 533.516 478.74 532.916 479.436 532.496C480.132 532.076 480.906 531.866 481.758 531.866C482.406 531.866 483.024 532.01 483.612 532.298C484.2 532.574 484.668 532.946 485.016 533.414V528.68H487.572V542H485.016V540.524C484.704 541.016 484.266 541.412 483.702 541.712C483.138 542.012 482.484 542.162 481.74 542.162C480.9 542.162 480.132 541.946 479.436 541.514C478.74 541.082 478.188 540.476 477.78 539.696C477.384 538.904 477.186 537.998 477.186 536.978ZM485.034 537.014C485.034 536.402 484.914 535.88 484.674 535.448C484.434 535.004 484.11 534.668 483.702 534.44C483.294 534.2 482.856 534.08 482.388 534.08C481.92 534.08 481.488 534.194 481.092 534.422C480.696 534.65 480.372 534.986 480.12 535.43C479.88 535.862 479.76 536.378 479.76 536.978C479.76 537.578 479.88 538.106 480.12 538.562C480.372 539.006 480.696 539.348 481.092 539.588C481.5 539.828 481.932 539.948 482.388 539.948C482.856 539.948 483.294 539.834 483.702 539.606C484.11 539.366 484.434 539.03 484.674 538.598C484.914 538.154 485.034 537.626 485.034 537.014Z" fill="#00A3AF"/>
<path d="M31.634 431.436C32.954 431.436 34.112 431.694 35.108 432.21C36.116 432.726 36.89 433.464 37.43 434.424C37.982 435.372 38.258 436.476 38.258 437.736C38.258 438.996 37.982 440.1 37.43 441.048C36.89 441.984 36.116 442.71 35.108 443.226C34.112 443.742 32.954 444 31.634 444H27.242V431.436H31.634ZM31.544 441.858C32.864 441.858 33.884 441.498 34.604 440.778C35.324 440.058 35.684 439.044 35.684 437.736C35.684 436.428 35.324 435.408 34.604 434.676C33.884 433.932 32.864 433.56 31.544 433.56H29.762V441.858H31.544ZM39.4963 438.978C39.4963 437.97 39.6943 437.076 40.0903 436.296C40.4983 435.516 41.0443 434.916 41.7283 434.496C42.4243 434.076 43.1983 433.866 44.0503 433.866C44.7943 433.866 45.4423 434.016 45.9943 434.316C46.5583 434.616 47.0083 434.994 47.3443 435.45V434.028H49.8823V444H47.3443V442.542C47.0203 443.01 46.5703 443.4 45.9943 443.712C45.4303 444.012 44.7763 444.162 44.0323 444.162C43.1923 444.162 42.4243 443.946 41.7283 443.514C41.0443 443.082 40.4983 442.476 40.0903 441.696C39.6943 440.904 39.4963 439.998 39.4963 438.978ZM47.3443 439.014C47.3443 438.402 47.2243 437.88 46.9843 437.448C46.7443 437.004 46.4203 436.668 46.0123 436.44C45.6043 436.2 45.1663 436.08 44.6983 436.08C44.2303 436.08 43.7983 436.194 43.4023 436.422C43.0063 436.65 42.6823 436.986 42.4303 437.43C42.1903 437.862 42.0703 438.378 42.0703 438.978C42.0703 439.578 42.1903 440.106 42.4303 440.562C42.6823 441.006 43.0063 441.348 43.4023 441.588C43.8103 441.828 44.2423 441.948 44.6983 441.948C45.1663 441.948 45.6043 441.834 46.0123 441.606C46.4203 441.366 46.7443 441.03 46.9843 440.598C47.2243 440.154 47.3443 439.626 47.3443 439.014ZM55.2776 436.098V440.922C55.2776 441.258 55.3556 441.504 55.5116 441.66C55.6796 441.804 55.9556 441.876 56.3396 441.876H57.5096V444H55.9256C53.8016 444 52.7396 442.968 52.7396 440.904V436.098H51.5516V434.028H52.7396V431.562H55.2776V434.028H57.5096V436.098H55.2776ZM58.6741 438.978C58.6741 437.97 58.8721 437.076 59.2681 436.296C59.6761 435.516 60.2221 434.916 60.9061 434.496C61.6021 434.076 62.3761 433.866 63.2281 433.866C63.9721 433.866 64.6201 434.016 65.1721 434.316C65.7361 434.616 66.1861 434.994 66.5221 435.45V434.028H69.0601V444H66.5221V442.542C66.1981 443.01 65.7481 443.4 65.1721 443.712C64.6081 444.012 63.9541 444.162 63.2101 444.162C62.3701 444.162 61.6021 443.946 60.9061 443.514C60.2221 443.082 59.6761 442.476 59.2681 441.696C58.8721 440.904 58.6741 439.998 58.6741 438.978ZM66.5221 439.014C66.5221 438.402 66.4021 437.88 66.1621 437.448C65.9221 437.004 65.5981 436.668 65.1901 436.44C64.7821 436.2 64.3441 436.08 63.8761 436.08C63.4081 436.08 62.9761 436.194 62.5801 436.422C62.1841 436.65 61.8601 436.986 61.6081 437.43C61.3681 437.862 61.2481 438.378 61.2481 438.978C61.2481 439.578 61.3681 440.106 61.6081 440.562C61.8601 441.006 62.1841 441.348 62.5801 441.588C62.9881 441.828 63.4201 441.948 63.8761 441.948C64.3441 441.948 64.7821 441.834 65.1901 441.606C65.5981 441.366 65.9221 441.03 66.1621 440.598C66.4021 440.154 66.5221 439.626 66.5221 439.014ZM75.1984 437.7C75.1984 436.464 75.4744 435.36 76.0264 434.388C76.5904 433.404 77.3524 432.642 78.3124 432.102C79.2844 431.55 80.3704 431.274 81.5704 431.274C82.9744 431.274 84.2044 431.634 85.2604 432.354C86.3164 433.074 87.0544 434.07 87.4744 435.342H84.5764C84.2884 434.742 83.8804 434.292 83.3524 433.992C82.8364 433.692 82.2364 433.542 81.5524 433.542C80.8204 433.542 80.1664 433.716 79.5904 434.064C79.0264 434.4 78.5824 434.88 78.2584 435.504C77.9464 436.128 77.7904 436.86 77.7904 437.7C77.7904 438.528 77.9464 439.26 78.2584 439.896C78.5824 440.52 79.0264 441.006 79.5904 441.354C80.1664 441.69 80.8204 441.858 81.5524 441.858C82.2364 441.858 82.8364 441.708 83.3524 441.408C83.8804 441.096 84.2884 440.64 84.5764 440.04H87.4744C87.0544 441.324 86.3164 442.326 85.2604 443.046C84.2164 443.754 82.9864 444.108 81.5704 444.108C80.3704 444.108 79.2844 443.838 78.3124 443.298C77.3524 442.746 76.5904 441.984 76.0264 441.012C75.4744 440.04 75.1984 438.936 75.1984 437.7ZM94.0548 444.162C93.0948 444.162 92.2308 443.952 91.4628 443.532C90.6948 443.1 90.0888 442.494 89.6448 441.714C89.2128 440.934 88.9968 440.034 88.9968 439.014C88.9968 437.994 89.2188 437.094 89.6628 436.314C90.1188 435.534 90.7368 434.934 91.5168 434.514C92.2968 434.082 93.1668 433.866 94.1268 433.866C95.0868 433.866 95.9568 434.082 96.7368 434.514C97.5168 434.934 98.1288 435.534 98.5728 436.314C99.0288 437.094 99.2568 437.994 99.2568 439.014C99.2568 440.034 99.0228 440.934 98.5548 441.714C98.0988 442.494 97.4748 443.1 96.6828 443.532C95.9028 443.952 95.0268 444.162 94.0548 444.162ZM94.0548 441.966C94.5108 441.966 94.9368 441.858 95.3328 441.642C95.7408 441.414 96.0648 441.078 96.3048 440.634C96.5448 440.19 96.6648 439.65 96.6648 439.014C96.6648 438.066 96.4128 437.34 95.9088 436.836C95.4168 436.32 94.8108 436.062 94.0908 436.062C93.3708 436.062 92.7648 436.32 92.2728 436.836C91.7928 437.34 91.5528 438.066 91.5528 439.014C91.5528 439.962 91.7868 440.694 92.2548 441.21C92.7348 441.714 93.3348 441.966 94.0548 441.966ZM103.625 430.68V444H101.105V430.68H103.625ZM108.635 430.68V444H106.115V430.68H108.635ZM120.395 438.798C120.395 439.158 120.371 439.482 120.323 439.77H113.033C113.093 440.49 113.345 441.054 113.789 441.462C114.233 441.87 114.779 442.074 115.427 442.074C116.363 442.074 117.029 441.672 117.425 440.868H120.143C119.855 441.828 119.303 442.62 118.487 443.244C117.671 443.856 116.669 444.162 115.481 444.162C114.521 444.162 113.657 443.952 112.889 443.532C112.133 443.1 111.539 442.494 111.107 441.714C110.687 440.934 110.477 440.034 110.477 439.014C110.477 437.982 110.687 437.076 111.107 436.296C111.527 435.516 112.115 434.916 112.871 434.496C113.627 434.076 114.497 433.866 115.481 433.866C116.429 433.866 117.275 434.07 118.019 434.478C118.775 434.886 119.357 435.468 119.765 436.224C120.185 436.968 120.395 437.826 120.395 438.798ZM117.785 438.078C117.773 437.43 117.539 436.914 117.083 436.53C116.627 436.134 116.069 435.936 115.409 435.936C114.785 435.936 114.257 436.128 113.825 436.512C113.405 436.884 113.147 437.406 113.051 438.078H117.785ZM121.586 439.014C121.586 437.982 121.796 437.082 122.216 436.314C122.636 435.534 123.218 434.934 123.962 434.514C124.706 434.082 125.558 433.866 126.518 433.866C127.754 433.866 128.774 434.178 129.578 434.802C130.394 435.414 130.94 436.278 131.216 437.394H128.498C128.354 436.962 128.108 436.626 127.76 436.386C127.424 436.134 127.004 436.008 126.5 436.008C125.78 436.008 125.21 436.272 124.79 436.8C124.37 437.316 124.16 438.054 124.16 439.014C124.16 439.962 124.37 440.7 124.79 441.228C125.21 441.744 125.78 442.002 126.5 442.002C127.52 442.002 128.186 441.546 128.498 440.634H131.216C130.94 441.714 130.394 442.572 129.578 443.208C128.762 443.844 127.742 444.162 126.518 444.162C125.558 444.162 124.706 443.952 123.962 443.532C123.218 443.1 122.636 442.5 122.216 441.732C121.796 440.952 121.586 440.046 121.586 439.014ZM135.996 436.098V440.922C135.996 441.258 136.074 441.504 136.23 441.66C136.398 441.804 136.674 441.876 137.058 441.876H138.228V444H136.644C134.52 444 133.458 442.968 133.458 440.904V436.098H132.27V434.028H133.458V431.562H135.996V434.028H138.228V436.098H135.996ZM141.319 432.84C140.875 432.84 140.503 432.702 140.203 432.426C139.915 432.138 139.771 431.784 139.771 431.364C139.771 430.944 139.915 430.596 140.203 430.32C140.503 430.032 140.875 429.888 141.319 429.888C141.763 429.888 142.129 430.032 142.417 430.32C142.717 430.596 142.867 430.944 142.867 431.364C142.867 431.784 142.717 432.138 142.417 432.426C142.129 432.702 141.763 432.84 141.319 432.84ZM142.561 434.028V444H140.041V434.028H142.561ZM149.479 444.162C148.519 444.162 147.655 443.952 146.887 443.532C146.119 443.1 145.513 442.494 145.069 441.714C144.637 440.934 144.421 440.034 144.421 439.014C144.421 437.994 144.643 437.094 145.087 436.314C145.543 435.534 146.161 434.934 146.941 434.514C147.721 434.082 148.591 433.866 149.551 433.866C150.511 433.866 151.381 434.082 152.161 434.514C152.941 434.934 153.553 435.534 153.997 436.314C154.453 437.094 154.681 437.994 154.681 439.014C154.681 440.034 154.447 440.934 153.979 441.714C153.523 442.494 152.899 443.1 152.107 443.532C151.327 443.952 150.451 444.162 149.479 444.162ZM149.479 441.966C149.935 441.966 150.361 441.858 150.757 441.642C151.165 441.414 151.489 441.078 151.729 440.634C151.969 440.19 152.089 439.65 152.089 439.014C152.089 438.066 151.837 437.34 151.333 436.836C150.841 436.32 150.235 436.062 149.515 436.062C148.795 436.062 148.189 436.32 147.697 436.836C147.217 437.34 146.977 438.066 146.977 439.014C146.977 439.962 147.211 440.694 147.679 441.21C148.159 441.714 148.759 441.966 149.479 441.966ZM162.055 433.884C163.243 433.884 164.203 434.262 164.935 435.018C165.667 435.762 166.033 436.806 166.033 438.15V444H163.513V438.492C163.513 437.7 163.315 437.094 162.919 436.674C162.523 436.242 161.983 436.026 161.299 436.026C160.603 436.026 160.051 436.242 159.643 436.674C159.247 437.094 159.049 437.7 159.049 438.492V444H156.529V434.028H159.049V435.27C159.385 434.838 159.811 434.502 160.327 434.262C160.855 434.01 161.431 433.884 162.055 433.884ZM180.423 441.606H175.419L174.591 444H171.945L176.463 431.418H179.397L183.915 444H181.251L180.423 441.606ZM179.739 439.59L177.921 434.334L176.103 439.59H179.739ZM188.123 435.468C188.447 435.012 188.891 434.634 189.455 434.334C190.031 434.022 190.685 433.866 191.417 433.866C192.269 433.866 193.037 434.076 193.721 434.496C194.417 434.916 194.963 435.516 195.359 436.296C195.767 437.064 195.971 437.958 195.971 438.978C195.971 439.998 195.767 440.904 195.359 441.696C194.963 442.476 194.417 443.082 193.721 443.514C193.037 443.946 192.269 444.162 191.417 444.162C190.685 444.162 190.037 444.012 189.473 443.712C188.921 443.412 188.471 443.034 188.123 442.578V448.752H185.603V434.028H188.123V435.468ZM193.397 438.978C193.397 438.378 193.271 437.862 193.019 437.43C192.779 436.986 192.455 436.65 192.047 436.422C191.651 436.194 191.219 436.08 190.751 436.08C190.295 436.08 189.863 436.2 189.455 436.44C189.059 436.668 188.735 437.004 188.483 437.448C188.243 437.892 188.123 438.414 188.123 439.014C188.123 439.614 188.243 440.136 188.483 440.58C188.735 441.024 189.059 441.366 189.455 441.606C189.863 441.834 190.295 441.948 190.751 441.948C191.219 441.948 191.651 441.828 192.047 441.588C192.455 441.348 192.779 441.006 193.019 440.562C193.271 440.118 193.397 439.59 193.397 438.978ZM200.323 435.468C200.647 435.012 201.091 434.634 201.655 434.334C202.231 434.022 202.885 433.866 203.617 433.866C204.469 433.866 205.237 434.076 205.921 434.496C206.617 434.916 207.163 435.516 207.559 436.296C207.967 437.064 208.171 437.958 208.171 438.978C208.171 439.998 207.967 440.904 207.559 441.696C207.163 442.476 206.617 443.082 205.921 443.514C205.237 443.946 204.469 444.162 203.617 444.162C202.885 444.162 202.237 444.012 201.673 443.712C201.121 443.412 200.671 443.034 200.323 442.578V448.752H197.803V434.028H200.323V435.468ZM205.597 438.978C205.597 438.378 205.471 437.862 205.219 437.43C204.979 436.986 204.655 436.65 204.247 436.422C203.851 436.194 203.419 436.08 202.951 436.08C202.495 436.08 202.063 436.2 201.655 436.44C201.259 436.668 200.935 437.004 200.683 437.448C200.443 437.892 200.323 438.414 200.323 439.014C200.323 439.614 200.443 440.136 200.683 440.58C200.935 441.024 201.259 441.366 201.655 441.606C202.063 441.834 202.495 441.948 202.951 441.948C203.419 441.948 203.851 441.828 204.247 441.588C204.655 441.348 204.979 441.006 205.219 440.562C205.471 440.118 205.597 439.59 205.597 438.978Z" fill="#FFFDF1"/>
<path d="M460.726 8.436V16.212C460.726 17.064 460.948 17.718 461.392 18.174C461.836 18.618 462.46 18.84 463.264 18.84C464.08 18.84 464.71 18.618 465.154 18.174C465.598 17.718 465.82 17.064 465.82 16.212V8.436H468.358V16.194C468.358 17.262 468.124 18.168 467.656 18.912C467.2 19.644 466.582 20.196 465.802 20.568C465.034 20.94 464.176 21.126 463.228 21.126C462.292 21.126 461.44 20.94 460.672 20.568C459.916 20.196 459.316 19.644 458.872 18.912C458.428 18.168 458.206 17.262 458.206 16.194V8.436H460.726ZM476.319 10.884C477.507 10.884 478.467 11.262 479.199 12.018C479.931 12.762 480.297 13.806 480.297 15.15V21H477.777V15.492C477.777 14.7 477.579 14.094 477.183 13.674C476.787 13.242 476.247 13.026 475.563 13.026C474.867 13.026 474.315 13.242 473.907 13.674C473.511 14.094 473.313 14.7 473.313 15.492V21H470.793V11.028H473.313V12.27C473.649 11.838 474.075 11.502 474.591 11.262C475.119 11.01 475.695 10.884 476.319 10.884ZM486.509 21.162C485.693 21.162 484.961 21.018 484.313 20.73C483.665 20.43 483.149 20.028 482.765 19.524C482.393 19.02 482.189 18.462 482.153 17.85H484.691C484.739 18.234 484.925 18.552 485.249 18.804C485.585 19.056 485.999 19.182 486.491 19.182C486.971 19.182 487.343 19.086 487.607 18.894C487.883 18.702 488.021 18.456 488.021 18.156C488.021 17.832 487.853 17.592 487.517 17.436C487.193 17.268 486.671 17.088 485.951 16.896C485.207 16.716 484.595 16.53 484.115 16.338C483.647 16.146 483.239 15.852 482.891 15.456C482.555 15.06 482.387 14.526 482.387 13.854C482.387 13.302 482.543 12.798 482.855 12.342C483.179 11.886 483.635 11.526 484.223 11.262C484.823 10.998 485.525 10.866 486.329 10.866C487.517 10.866 488.465 11.166 489.173 11.766C489.881 12.354 490.271 13.152 490.343 14.16H487.931C487.895 13.764 487.727 13.452 487.427 13.224C487.139 12.984 486.749 12.864 486.257 12.864C485.801 12.864 485.447 12.948 485.195 13.116C484.955 13.284 484.835 13.518 484.835 13.818C484.835 14.154 485.003 14.412 485.339 14.592C485.675 14.76 486.197 14.934 486.905 15.114C487.625 15.294 488.219 15.48 488.687 15.672C489.155 15.864 489.557 16.164 489.893 16.572C490.241 16.968 490.421 17.496 490.433 18.156C490.433 18.732 490.271 19.248 489.947 19.704C489.635 20.16 489.179 20.52 488.579 20.784C487.991 21.036 487.301 21.162 486.509 21.162ZM495.436 13.098V17.922C495.436 18.258 495.514 18.504 495.67 18.66C495.838 18.804 496.114 18.876 496.498 18.876H497.668V21H496.084C493.96 21 492.898 19.968 492.898 17.904V13.098H491.71V11.028H492.898V8.562H495.436V11.028H497.668V13.098H495.436ZM502 12.576C502.324 12.048 502.744 11.634 503.26 11.334C503.788 11.034 504.388 10.884 505.06 10.884V13.53H504.394C503.602 13.53 503.002 13.716 502.594 14.088C502.198 14.46 502 15.108 502 16.032V21H499.48V11.028H502V12.576ZM516.172 11.028V21H513.634V19.74C513.31 20.172 512.884 20.514 512.356 20.766C511.84 21.006 511.276 21.126 510.664 21.126C509.884 21.126 509.194 20.964 508.594 20.64C507.994 20.304 507.52 19.818 507.172 19.182C506.836 18.534 506.668 17.766 506.668 16.878V11.028H509.188V16.518C509.188 17.31 509.386 17.922 509.782 18.354C510.178 18.774 510.718 18.984 511.402 18.984C512.098 18.984 512.644 18.774 513.04 18.354C513.436 17.922 513.634 17.31 513.634 16.518V11.028H516.172ZM518.01 16.014C518.01 14.982 518.22 14.082 518.64 13.314C519.06 12.534 519.642 11.934 520.386 11.514C521.13 11.082 521.982 10.866 522.942 10.866C524.178 10.866 525.198 11.178 526.002 11.802C526.818 12.414 527.364 13.278 527.64 14.394H524.922C524.778 13.962 524.532 13.626 524.184 13.386C523.848 13.134 523.428 13.008 522.924 13.008C522.204 13.008 521.634 13.272 521.214 13.8C520.794 14.316 520.584 15.054 520.584 16.014C520.584 16.962 520.794 17.7 521.214 18.228C521.634 18.744 522.204 19.002 522.924 19.002C523.944 19.002 524.61 18.546 524.922 17.634H527.64C527.364 18.714 526.818 19.572 526.002 20.208C525.186 20.844 524.166 21.162 522.942 21.162C521.982 21.162 521.13 20.952 520.386 20.532C519.642 20.1 519.06 19.5 518.64 18.732C518.22 17.952 518.01 17.046 518.01 16.014ZM532.42 13.098V17.922C532.42 18.258 532.498 18.504 532.654 18.66C532.822 18.804 533.098 18.876 533.482 18.876H534.652V21H533.068C530.944 21 529.882 19.968 529.882 17.904V13.098H528.694V11.028H529.882V8.562H532.42V11.028H534.652V13.098H532.42ZM545.879 11.028V21H543.341V19.74C543.017 20.172 542.591 20.514 542.063 20.766C541.547 21.006 540.983 21.126 540.371 21.126C539.591 21.126 538.901 20.964 538.301 20.64C537.701 20.304 537.227 19.818 536.879 19.182C536.543 18.534 536.375 17.766 536.375 16.878V11.028H538.895V16.518C538.895 17.31 539.093 17.922 539.489 18.354C539.885 18.774 540.425 18.984 541.109 18.984C541.805 18.984 542.351 18.774 542.747 18.354C543.143 17.922 543.341 17.31 543.341 16.518V11.028H545.879ZM550.885 12.576C551.209 12.048 551.629 11.634 552.145 11.334C552.673 11.034 553.273 10.884 553.945 10.884V13.53H553.279C552.487 13.53 551.887 13.716 551.479 14.088C551.083 14.46 550.885 15.108 550.885 16.032V21H548.365V11.028H550.885V12.576ZM564.912 15.798C564.912 16.158 564.888 16.482 564.84 16.77H557.55C557.61 17.49 557.862 18.054 558.306 18.462C558.75 18.87 559.296 19.074 559.944 19.074C560.88 19.074 561.546 18.672 561.942 17.868H564.66C564.372 18.828 563.82 19.62 563.004 20.244C562.188 20.856 561.186 21.162 559.998 21.162C559.038 21.162 558.174 20.952 557.406 20.532C556.65 20.1 556.056 19.494 555.624 18.714C555.204 17.934 554.994 17.034 554.994 16.014C554.994 14.982 555.204 14.076 555.624 13.296C556.044 12.516 556.632 11.916 557.388 11.496C558.144 11.076 559.014 10.866 559.998 10.866C560.946 10.866 561.792 11.07 562.536 11.478C563.292 11.886 563.874 12.468 564.282 13.224C564.702 13.968 564.912 14.826 564.912 15.798ZM562.302 15.078C562.29 14.43 562.056 13.914 561.6 13.53C561.144 13.134 560.586 12.936 559.926 12.936C559.302 12.936 558.774 13.128 558.342 13.512C557.922 13.884 557.664 14.406 557.568 15.078H562.302ZM566.104 15.978C566.104 14.97 566.302 14.076 566.698 13.296C567.106 12.516 567.658 11.916 568.354 11.496C569.05 11.076 569.824 10.866 570.676 10.866C571.324 10.866 571.942 11.01 572.53 11.298C573.118 11.574 573.586 11.946 573.934 12.414V7.68H576.49V21H573.934V19.524C573.622 20.016 573.184 20.412 572.62 20.712C572.056 21.012 571.402 21.162 570.658 21.162C569.818 21.162 569.05 20.946 568.354 20.514C567.658 20.082 567.106 19.476 566.698 18.696C566.302 17.904 566.104 16.998 566.104 15.978ZM573.952 16.014C573.952 15.402 573.832 14.88 573.592 14.448C573.352 14.004 573.028 13.668 572.62 13.44C572.212 13.2 571.774 13.08 571.306 13.08C570.838 13.08 570.406 13.194 570.01 13.422C569.614 13.65 569.29 13.986 569.038 14.43C568.798 14.862 568.678 15.378 568.678 15.978C568.678 16.578 568.798 17.106 569.038 17.562C569.29 18.006 569.614 18.348 570.01 18.588C570.418 18.828 570.85 18.948 571.306 18.948C571.774 18.948 572.212 18.834 572.62 18.606C573.028 18.366 573.352 18.03 573.592 17.598C573.832 17.154 573.952 16.626 573.952 16.014ZM590.944 18.606H585.94L585.112 21H582.466L586.984 8.418H589.918L594.436 21H591.772L590.944 18.606ZM590.26 16.59L588.442 11.334L586.624 16.59H590.26ZM601.651 10.884C602.839 10.884 603.799 11.262 604.531 12.018C605.263 12.762 605.629 13.806 605.629 15.15V21H603.109V15.492C603.109 14.7 602.911 14.094 602.515 13.674C602.119 13.242 601.579 13.026 600.895 13.026C600.199 13.026 599.647 13.242 599.239 13.674C598.843 14.094 598.645 14.7 598.645 15.492V21H596.125V11.028H598.645V12.27C598.981 11.838 599.407 11.502 599.923 11.262C600.451 11.01 601.027 10.884 601.651 10.884ZM607.377 15.978C607.377 14.97 607.575 14.076 607.971 13.296C608.379 12.516 608.925 11.916 609.609 11.496C610.305 11.076 611.079 10.866 611.931 10.866C612.675 10.866 613.323 11.016 613.875 11.316C614.439 11.616 614.889 11.994 615.225 12.45V11.028H617.763V21H615.225V19.542C614.901 20.01 614.451 20.4 613.875 20.712C613.311 21.012 612.657 21.162 611.913 21.162C611.073 21.162 610.305 20.946 609.609 20.514C608.925 20.082 608.379 19.476 607.971 18.696C607.575 17.904 607.377 16.998 607.377 15.978ZM615.225 16.014C615.225 15.402 615.105 14.88 614.865 14.448C614.625 14.004 614.301 13.668 613.893 13.44C613.485 13.2 613.047 13.08 612.579 13.08C612.111 13.08 611.679 13.194 611.283 13.422C610.887 13.65 610.563 13.986 610.311 14.43C610.071 14.862 609.951 15.378 609.951 15.978C609.951 16.578 610.071 17.106 610.311 17.562C610.563 18.006 610.887 18.348 611.283 18.588C611.691 18.828 612.123 18.948 612.579 18.948C613.047 18.948 613.485 18.834 613.893 18.606C614.301 18.366 614.625 18.03 614.865 17.598C615.105 17.154 615.225 16.626 615.225 16.014ZM622.744 7.68V21H620.224V7.68H622.744ZM634.774 11.028L628.6 25.716H625.918L628.078 20.748L624.082 11.028H626.908L629.482 17.994L632.092 11.028H634.774ZM639.949 21.162C639.133 21.162 638.401 21.018 637.753 20.73C637.105 20.43 636.589 20.028 636.205 19.524C635.833 19.02 635.629 18.462 635.593 17.85H638.131C638.179 18.234 638.365 18.552 638.689 18.804C639.025 19.056 639.439 19.182 639.931 19.182C640.411 19.182 640.783 19.086 641.047 18.894C641.323 18.702 641.461 18.456 641.461 18.156C641.461 17.832 641.293 17.592 640.957 17.436C640.633 17.268 640.111 17.088 639.391 16.896C638.647 16.716 638.035 16.53 637.555 16.338C637.087 16.146 636.679 15.852 636.331 15.456C635.995 15.06 635.827 14.526 635.827 13.854C635.827 13.302 635.983 12.798 636.295 12.342C636.619 11.886 637.075 11.526 637.663 11.262C638.263 10.998 638.965 10.866 639.769 10.866C640.957 10.866 641.905 11.166 642.613 11.766C643.321 12.354 643.711 13.152 643.783 14.16H641.371C641.335 13.764 641.167 13.452 640.867 13.224C640.579 12.984 640.189 12.864 639.697 12.864C639.241 12.864 638.887 12.948 638.635 13.116C638.395 13.284 638.275 13.518 638.275 13.818C638.275 14.154 638.443 14.412 638.779 14.592C639.115 14.76 639.637 14.934 640.345 15.114C641.065 15.294 641.659 15.48 642.127 15.672C642.595 15.864 642.997 16.164 643.333 16.572C643.681 16.968 643.861 17.496 643.873 18.156C643.873 18.732 643.711 19.248 643.387 19.704C643.075 20.16 642.619 20.52 642.019 20.784C641.431 21.036 640.741 21.162 639.949 21.162ZM647.219 9.84C646.775 9.84 646.403 9.702 646.103 9.426C645.815 9.138 645.671 8.784 645.671 8.364C645.671 7.944 645.815 7.596 646.103 7.32C646.403 7.032 646.775 6.888 647.219 6.888C647.663 6.888 648.029 7.032 648.317 7.32C648.617 7.596 648.767 7.944 648.767 8.364C648.767 8.784 648.617 9.138 648.317 9.426C648.029 9.702 647.663 9.84 647.219 9.84ZM648.461 11.028V21H645.941V11.028H648.461ZM654.767 21.162C653.951 21.162 653.219 21.018 652.571 20.73C651.923 20.43 651.407 20.028 651.023 19.524C650.651 19.02 650.447 18.462 650.411 17.85H652.949C652.997 18.234 653.183 18.552 653.507 18.804C653.843 19.056 654.257 19.182 654.749 19.182C655.229 19.182 655.601 19.086 655.865 18.894C656.141 18.702 656.279 18.456 656.279 18.156C656.279 17.832 656.111 17.592 655.775 17.436C655.451 17.268 654.929 17.088 654.209 16.896C653.465 16.716 652.853 16.53 652.373 16.338C651.905 16.146 651.497 15.852 651.149 15.456C650.813 15.06 650.645 14.526 650.645 13.854C650.645 13.302 650.801 12.798 651.113 12.342C651.437 11.886 651.893 11.526 652.481 11.262C653.081 10.998 653.783 10.866 654.587 10.866C655.775 10.866 656.723 11.166 657.431 11.766C658.139 12.354 658.529 13.152 658.601 14.16H656.189C656.153 13.764 655.985 13.452 655.685 13.224C655.397 12.984 655.007 12.864 654.515 12.864C654.059 12.864 653.705 12.948 653.453 13.116C653.213 13.284 653.093 13.518 653.093 13.818C653.093 14.154 653.261 14.412 653.597 14.592C653.933 14.76 654.455 14.934 655.163 15.114C655.883 15.294 656.477 15.48 656.945 15.672C657.413 15.864 657.815 16.164 658.151 16.572C658.499 16.968 658.679 17.496 658.691 18.156C658.691 18.732 658.529 19.248 658.205 19.704C657.893 20.16 657.437 20.52 656.837 20.784C656.249 21.036 655.559 21.162 654.767 21.162Z" fill="#FFFDF1"/>
</svg>
